<?xml version="1.0" standalone="no"?>
<!DOCTYPE svg PUBLIC "-//W3C//DTD SVG 20010904//EN"
 "http://www.w3.org/TR/2001/REC-SVG-20010904/DTD/svg10.dtd">
<svg version="1.0" xmlns="http://www.w3.org/2000/svg"
 width="878.000000pt" height="564.000000pt" viewBox="0 0 878.000000 564.000000"
 preserveAspectRatio="xMidYMid meet">

<g transform="translate(0.000000,564.000000) scale(0.100000,-0.100000)"
fill="#000000" stroke="none">
<path d="M1113 5630 l1118 -5 -368 -122 -368 -123 -298 0 -297 0 0 -50 0 -50
-335 0 -335 0 2 -292 3 -293 602 -3 603 -2 0 205 0 205 470 0 470 0 0 -490 0
-490 618 0 617 0 240 -80 240 -80 375 125 375 125 818 0 817 0 0 -365 0 -365
-165 0 -165 0 2 -292 3 -293 603 -3 602 -2 -2 292 -3 293 -432 3 -433 2 0 370
0 370 -823 0 -822 0 -375 125 -375 125 -378 -126 c-208 -69 -376 -128 -374
-130 2 -3 55 -22 118 -43 l114 -39 -592 -1 -593 -1 0 490 0 490 -475 0 -474 0
-3 83 -3 82 -262 3 -263 2 0 45 0 45 293 0 292 0 375 -125 375 -125 375 125
375 125 118 0 117 0 0 -115 c0 -65 -4 -115 -9 -115 -6 0 -9 -9 -8 -19 0 -11 5
-17 9 -15 4 3 8 -6 8 -20 l0 -26 120 0 119 0 3 -152 3 -153 603 -3 602 -2 -2
292 -3 293 -58 3 -57 3 0 44 0 45 53 0 c48 0 56 -3 75 -30 15 -20 31 -30 48
-30 32 0 74 42 74 74 0 29 -42 66 -76 66 -27 0 -64 -32 -64 -55 0 -12 -13 -15
-60 -15 l-60 0 0 -50 0 -50 -540 0 -540 0 0 -135 0 -135 -115 0 -115 0 0 25
c0 14 5 25 10 25 6 0 10 11 10 24 0 14 5 28 10 31 6 4 10 -7 10 -24 0 -17 5
-31 11 -31 17 0 6 65 -11 66 -8 1 -21 2 -27 3 -10 1 -13 27 -13 96 l0 95 -122
0 -123 0 -368 123 -368 122 3263 5 c3237 5 3228 5 -1132 5 -2417 0 -3892 -2
-3277 -5z m1495 -131 c200 -67 361 -123 359 -125 -2 -3 -166 -59 -363 -124
l-359 -120 -363 121 c-200 67 -361 123 -359 125 4 4 703 241 717 243 3 1 168
-53 368 -120z m2170 -15 c28 -19 28 -51 0 -81 -27 -29 -62 -29 -82 -1 -44 63
19 126 82 82z m-118 -434 l0 -280 -590 0 -590 0 0 280 0 280 590 0 590 0 0
-280z m-3240 -60 l0 -280 -590 0 -590 0 0 280 0 280 590 0 590 0 0 -280z
m3038 -651 c200 -67 361 -123 359 -125 -2 -3 -166 -59 -363 -124 l-359 -120
-363 121 c-200 67 -361 123 -359 125 4 4 703 241 717 243 3 1 168 -53 368
-120z m2882 -1149 l0 -280 -590 0 -590 0 0 280 0 280 590 0 590 0 0 -280z"/>
<path d="M2140 5365 c0 -49 15 -62 22 -17 5 35 -1 62 -13 62 -5 0 -9 -20 -9
-45z"/>
<path d="M2284 5400 c-12 -12 -6 -80 7 -80 7 0 11 31 8 68 0 4 10 10 23 14 23
6 23 6 -2 7 -15 1 -30 -3 -36 -9z"/>
<path d="M2074 5376 c-15 -39 23 -74 50 -46 8 9 6 11 -11 5 -20 -5 -23 -3 -23
20 0 22 3 25 21 20 15 -5 19 -4 15 4 -10 16 -46 14 -52 -3z"/>
<path d="M2178 5355 c2 -19 8 -35 14 -35 13 0 6 63 -8 67 -6 2 -8 -10 -6 -32z"/>
<path d="M2214 5376 c-15 -39 23 -74 50 -46 8 9 6 11 -11 5 -14 -4 -23 -2 -23
4 0 6 9 11 21 11 14 0 19 5 17 18 -4 22 -46 29 -54 8z m36 -6 c0 -5 -4 -10
-10 -10 -5 0 -10 5 -10 10 0 6 5 10 10 10 6 0 10 -4 10 -10z"/>
<path d="M2320 5355 c0 -19 5 -35 10 -35 6 0 10 16 10 35 0 19 -4 35 -10 35
-5 0 -10 -16 -10 -35z"/>
<path d="M2356 5382 c-4 -6 3 -8 16 -5 23 6 23 6 -1 -14 -28 -23 -21 -43 15
-43 22 0 25 4 22 33 -2 24 -8 33 -25 35 -11 2 -24 -1 -27 -6z m30 -49 c-10
-10 -19 5 -10 18 6 11 8 11 12 0 2 -7 1 -15 -2 -18z"/>
<path d="M3630 5045 c0 -40 2 -45 23 -45 29 0 47 18 47 45 0 27 -18 45 -47 45
-21 0 -23 -5 -23 -45z m45 0 c0 -16 -6 -30 -12 -32 -9 -3 -13 7 -13 32 0 25 4
35 13 33 6 -3 12 -17 12 -33z"/>
<path d="M3975 5081 c-3 -6 -17 -11 -31 -11 -21 0 -24 -5 -24 -35 0 -19 5 -35
10 -35 6 0 10 14 10 30 0 38 27 41 32 3 5 -43 23 -37 21 8 -1 43 -7 57 -18 40z"/>
<path d="M4333 5079 c-12 -12 -2 -71 12 -76 9 -3 12 74 3 83 -2 2 -9 -1 -15
-7z"/>
<path d="M4492 5078 c-15 -15 -16 -32 -2 -23 6 4 10 -7 10 -24 0 -17 5 -31 10
-31 6 0 10 20 10 45 0 46 -7 54 -28 33z"/>
<path d="M3714 5056 c-15 -39 23 -74 50 -46 8 9 6 11 -11 5 -14 -4 -23 -2 -23
4 0 6 9 11 21 11 14 0 19 5 17 18 -4 22 -46 29 -54 8z m36 -6 c0 -5 -4 -10
-10 -10 -5 0 -10 5 -10 10 0 6 5 10 10 10 6 0 10 -4 10 -10z"/>
<path d="M3780 5024 c0 -24 5 -44 10 -44 10 0 14 19 11 52 -1 9 3 20 10 24 8
5 10 -2 7 -25 -3 -20 -1 -30 6 -28 6 2 11 17 11 33 0 24 -4 29 -27 31 -27 2
-28 0 -28 -43z"/>
<path d="M3856 5062 c-4 -6 3 -8 16 -5 23 6 23 6 -1 -14 -28 -23 -21 -43 15
-43 22 0 25 4 22 33 -2 24 -8 33 -25 35 -11 2 -24 -1 -27 -6z m30 -49 c-10
-10 -19 5 -10 18 6 11 8 11 12 0 2 -7 1 -15 -2 -18z"/>
<path d="M4016 5062 c-4 -6 3 -8 16 -5 23 6 23 6 -1 -14 -28 -23 -21 -43 15
-43 22 0 25 4 22 33 -2 24 -8 33 -25 35 -11 2 -24 -1 -27 -6z m30 -49 c-10
-10 -19 5 -10 18 6 11 8 11 12 0 2 -7 1 -15 -2 -18z"/>
<path d="M4080 5034 c0 -19 5 -34 10 -34 6 0 10 11 10 24 0 14 5 28 10 31 6 4
10 -7 10 -24 0 -17 5 -31 10 -31 6 0 10 11 10 24 0 14 5 28 10 31 6 4 10 -7
10 -24 0 -17 5 -31 11 -31 6 0 9 14 7 32 -3 31 -5 33 -50 34 l-48 2 0 -34z"/>
<path d="M4194 5056 c-15 -39 23 -74 50 -46 8 9 6 11 -11 5 -14 -4 -23 -2 -23
4 0 6 9 11 21 11 14 0 19 5 17 18 -4 22 -46 29 -54 8z m36 -6 c0 -5 -4 -10
-10 -10 -5 0 -10 5 -10 10 0 6 5 10 10 10 6 0 10 -4 10 -10z"/>
<path d="M4260 5034 c0 -19 5 -34 10 -34 6 0 10 11 10 24 0 14 5 28 10 31 6 4
10 -7 10 -24 0 -17 5 -31 11 -31 6 0 9 14 7 32 -3 28 -7 33 -30 35 -26 2 -28
-1 -28 -33z"/>
<path d="M4374 5046 c-7 -30 1 -46 26 -46 21 0 33 25 25 51 -9 28 -43 24 -51
-5z m36 -11 c0 -14 -4 -25 -10 -25 -5 0 -10 11 -10 25 0 14 5 25 10 25 6 0 10
-11 10 -25z"/>
<path d="M452 5018 c-15 -15 -15 -51 0 -66 15 -15 45 -16 53 -2 4 6 -4 9 -17
7 -19 -2 -23 3 -23 28 0 25 4 30 23 28 13 -2 21 1 17 7 -8 14 -38 13 -53 -2z"/>
<path d="M590 4985 c0 -25 5 -45 10 -45 6 0 10 20 10 45 0 25 -4 45 -10 45 -5
0 -10 -20 -10 -45z"/>
<path d="M690 4986 c0 -43 1 -45 28 -43 23 2 27 7 27 31 0 16 -5 31 -11 33 -7
2 -9 -8 -6 -28 3 -23 1 -30 -7 -25 -7 4 -11 15 -10 24 3 33 -1 52 -11 52 -5 0
-10 -20 -10 -44z"/>
<path d="M989 5013 c-1 -10 -1 -25 0 -35 1 -9 -3 -20 -10 -24 -8 -5 -10 2 -7
25 3 20 1 30 -6 28 -6 -2 -11 -17 -11 -33 0 -24 4 -29 28 -31 26 -2 27 0 27
43 0 41 -19 65 -21 27z"/>
<path d="M1192 5018 c-15 -15 -16 -32 -2 -23 6 4 10 -7 10 -24 0 -17 5 -31 10
-31 6 0 10 20 10 45 0 46 -7 54 -28 33z"/>
<path d="M524 4986 c-7 -30 1 -46 26 -46 21 0 33 25 25 51 -9 28 -43 24 -51
-5z m36 -11 c0 -14 -4 -25 -10 -25 -5 0 -10 11 -10 25 0 14 5 25 10 25 6 0 10
-11 10 -25z"/>
<path d="M626 5002 c-4 -6 3 -8 16 -5 23 6 23 6 -1 -14 -28 -23 -21 -43 15
-43 22 0 25 4 22 33 -2 24 -8 33 -25 35 -11 2 -24 -1 -27 -6z m30 -49 c-10
-10 -19 5 -10 18 6 11 8 11 12 0 2 -7 1 -15 -2 -18z"/>
<path d="M764 4986 c-7 -30 1 -46 26 -46 21 0 33 25 25 51 -9 28 -43 24 -51
-5z m36 -11 c0 -14 -4 -25 -10 -25 -5 0 -10 11 -10 25 0 14 5 25 10 25 6 0 10
-11 10 -25z"/>
<path d="M830 4975 c0 -19 5 -35 10 -35 6 0 10 13 10 29 0 16 6 32 13 34 6 3
2 6 -10 6 -20 1 -23 -4 -23 -34z"/>
<path d="M886 5002 c-4 -6 3 -8 16 -5 23 6 23 6 -1 -14 -28 -23 -21 -43 15
-43 22 0 25 4 22 33 -2 24 -8 33 -25 35 -11 2 -24 -1 -27 -6z m30 -49 c-10
-10 -19 5 -10 18 6 11 8 11 12 0 2 -7 1 -15 -2 -18z"/>
<path d="M1024 4986 c-7 -30 1 -46 26 -46 21 0 33 25 25 51 -9 28 -43 24 -51
-5z m36 -11 c0 -14 -4 -25 -10 -25 -5 0 -10 11 -10 25 0 14 5 25 10 25 6 0 10
-11 10 -25z"/>
<path d="M1090 4975 c0 -19 5 -35 10 -35 6 0 10 13 10 29 0 16 6 32 13 34 6 3
2 6 -10 6 -20 1 -23 -4 -23 -34z"/>
<path d="M3840 4206 c0 -25 5 -46 10 -46 6 0 10 6 10 14 0 8 10 16 23 18 16 2
22 10 22 28 0 21 -5 26 -32 28 -33 3 -33 3 -33 -42z m50 14 c0 -11 -7 -20 -15
-20 -8 0 -15 9 -15 20 0 11 7 20 15 20 8 0 15 -9 15 -20z"/>
<path d="M4045 4241 c-3 -6 -17 -11 -31 -11 -21 0 -24 -5 -24 -35 0 -19 5 -35
10 -35 6 0 10 14 10 30 0 38 27 41 32 3 5 -43 23 -37 21 8 -1 43 -7 57 -18 40z"/>
<path d="M3926 4222 c-4 -6 3 -8 16 -5 23 6 23 6 -1 -14 -28 -23 -21 -43 15
-43 22 0 25 4 22 33 -2 24 -8 33 -25 35 -11 2 -24 -1 -27 -6z m30 -49 c-10
-10 -19 5 -10 18 6 11 8 11 12 0 2 -7 1 -15 -2 -18z"/>
<path d="M4080 4195 c0 -19 5 -35 10 -35 6 0 10 16 10 35 0 19 -4 35 -10 35
-5 0 -10 -16 -10 -35z"/>
<path d="M4114 4216 c-15 -39 23 -74 50 -46 8 9 6 11 -11 5 -20 -5 -23 -3 -23
20 0 22 3 25 21 20 15 -5 19 -4 15 4 -10 16 -46 14 -52 -3z"/>
<path d="M4180 4195 c0 -19 5 -35 10 -35 6 0 10 16 10 35 0 19 -4 35 -10 35
-5 0 -10 -16 -10 -35z"/>
<path d="M4210 4184 c0 -24 5 -44 10 -44 10 0 14 19 11 52 -1 9 3 20 10 24 8
5 10 -2 7 -25 -3 -20 -1 -30 6 -28 6 2 11 17 11 33 0 24 -4 29 -27 31 -27 2
-28 0 -28 -43z"/>
<path d="M4286 4222 c-4 -6 3 -8 16 -5 23 6 23 6 -1 -14 -28 -23 -21 -43 15
-43 22 0 25 4 22 33 -2 24 -8 33 -25 35 -11 2 -24 -1 -27 -6z m30 -49 c-10
-10 -19 5 -10 18 6 11 8 11 12 0 2 -7 1 -15 -2 -18z"/>
<path d="M6540 3186 c0 -25 5 -46 10 -46 6 0 10 6 10 14 0 8 10 16 23 18 16 2
22 10 22 28 0 21 -5 26 -32 28 -33 3 -33 3 -33 -42z m48 17 c-5 -25 -28 -28
-28 -4 0 12 6 21 16 21 9 0 14 -7 12 -17z"/>
<path d="M6843 3219 c-12 -12 -2 -71 12 -76 9 -3 12 74 3 83 -2 2 -9 -1 -15
-7z"/>
<path d="M6620 3175 c0 -19 5 -35 10 -35 6 0 10 13 10 29 0 16 6 32 13 34 6 3
2 6 -10 6 -20 1 -23 -4 -23 -34z"/>
<path d="M6674 3186 c-7 -30 1 -46 26 -46 21 0 33 25 25 51 -9 28 -43 24 -51
-5z m36 -11 c0 -14 -4 -25 -10 -25 -5 0 -10 11 -10 25 0 14 5 25 10 25 6 0 10
-11 10 -25z"/>
<path d="M6738 3165 c-2 -27 1 -44 7 -42 13 5 19 87 7 87 -6 0 -12 -20 -14
-45z"/>
<path d="M6774 3196 c-15 -39 23 -74 50 -46 8 9 6 11 -11 5 -14 -4 -23 -2 -23
4 0 6 9 11 21 11 14 0 19 5 17 18 -4 22 -46 29 -54 8z m36 -6 c0 -5 -4 -10
-10 -10 -5 0 -10 5 -10 10 0 6 5 10 10 10 6 0 10 -4 10 -10z"/>
<path d="M6884 3186 c-7 -30 1 -46 26 -46 21 0 33 25 25 51 -9 28 -43 24 -51
-5z m36 -11 c0 -14 -4 -25 -10 -25 -5 0 -10 11 -10 25 0 14 5 25 10 25 6 0 10
-11 10 -25z"/>
<path d="M5750 5580 c-11 -11 -20 -27 -20 -35 0 -13 -22 -15 -140 -15 l-140 0
0 -45 0 -44 -137 -4 -138 -3 138 -2 137 -2 0 -55 0 -55 138 0 138 0 22 -30
c15 -20 31 -30 48 -30 32 0 74 42 74 74 0 29 -42 66 -76 66 -27 0 -64 -32 -64
-55 0 -13 -22 -15 -135 -15 l-135 0 0 95 0 95 133 0 133 0 22 -30 c28 -37 64
-39 97 -5 33 32 32 68 -1 94 -34 26 -68 27 -94 1z m88 -6 c28 -19 28 -51 0
-81 -27 -29 -62 -29 -82 -1 -44 63 19 126 82 82z m0 -200 c28 -19 28 -51 0
-81 -27 -29 -62 -29 -82 -1 -44 63 19 126 82 82z"/>
<path d="M5910 5525 c0 -25 5 -45 10 -45 6 0 10 12 10 28 l1 27 15 -27 c21
-41 34 -34 34 17 0 25 -4 45 -10 45 -5 0 -10 -12 -10 -27 l-1 -28 -15 28 c-21
40 -34 33 -34 -18z"/>
<path d="M6270 5525 c0 -40 2 -45 23 -45 29 0 47 18 47 45 0 27 -18 45 -47 45
-21 0 -23 -5 -23 -45z m45 0 c0 -16 -6 -30 -12 -32 -9 -3 -13 7 -13 32 0 25 4
35 13 33 6 -3 12 -17 12 -33z"/>
<path d="M6350 5526 c0 -25 5 -46 10 -46 6 0 10 6 10 14 0 8 10 16 23 18 16 2
22 10 22 28 0 21 -5 26 -32 28 -33 3 -33 3 -33 -42z m50 14 c0 -11 -7 -20 -15
-20 -8 0 -15 9 -15 20 0 11 7 20 15 20 8 0 15 -9 15 -20z"/>
<path d="M5994 5526 c-7 -30 1 -46 26 -46 21 0 33 25 25 51 -9 28 -43 24 -51
-5z m36 -11 c0 -14 -4 -25 -10 -25 -5 0 -10 11 -10 25 0 14 5 25 10 25 6 0 10
-11 10 -25z"/>
<path d="M6060 5514 c0 -19 5 -34 10 -34 6 0 10 11 10 24 0 14 5 28 10 31 6 4
10 -7 10 -24 0 -17 5 -31 10 -31 6 0 10 11 10 24 0 14 5 28 10 31 6 4 10 -7
10 -24 0 -17 5 -31 11 -31 6 0 9 14 7 32 -3 31 -5 33 -50 34 l-48 2 0 -34z"/>
<path d="M6174 5536 c-15 -39 23 -74 50 -46 8 9 6 11 -11 5 -14 -4 -23 -2 -23
4 0 6 9 11 21 11 14 0 19 5 17 18 -4 22 -46 29 -54 8z m36 -6 c0 -5 -4 -10
-10 -10 -5 0 -10 5 -10 10 0 6 5 10 10 10 6 0 10 -4 10 -10z"/>
<path d="M610 5471 c-13 -26 -13 -53 3 -74 10 -15 12 -9 12 38 0 30 -1 55 -2
55 -1 0 -7 -9 -13 -19z"/>
<path d="M644 5477 c-3 -9 -4 -28 -2 -44 2 -22 8 -28 28 -28 23 0 25 4 25 40
0 34 -3 40 -23 43 -13 2 -24 -3 -28 -11z m36 -32 c0 -19 -4 -35 -10 -35 -5 0
-10 16 -10 35 0 19 5 35 10 35 6 0 10 -16 10 -35z"/>
<path d="M815 5435 c0 -47 2 -53 13 -38 6 9 12 26 12 38 0 12 -6 29 -12 38
-11 15 -13 9 -13 -38z"/>
<path d="M4857 5473 c-14 -14 -6 -34 18 -45 34 -15 32 -32 -2 -23 -21 5 -25 4
-17 -5 17 -17 58 -8 62 12 2 11 -6 22 -22 29 -34 16 -34 33 0 25 17 -5 23 -3
19 4 -7 11 -48 14 -58 3z"/>
<path d="M5030 5435 c0 -25 5 -45 10 -45 6 0 10 20 10 45 0 25 -4 45 -10 45
-5 0 -10 -20 -10 -45z"/>
<path d="M740 5434 c0 -19 5 -34 10 -34 6 0 10 11 10 24 0 14 5 28 10 31 6 4
10 -7 10 -24 0 -17 5 -31 11 -31 6 0 9 14 7 32 -3 28 -7 33 -30 35 -26 2 -28
-1 -28 -33z"/>
<path d="M5140 5440 c0 -32 1 -33 17 -17 16 16 16 18 0 34 -16 16 -17 15 -17
-17z"/>
<path d="M4930 5425 c0 -19 5 -35 10 -35 6 0 10 16 10 35 0 19 -4 35 -10 35
-5 0 -10 -16 -10 -35z"/>
<path d="M4964 5445 c-3 -7 -3 -25 -1 -41 3 -23 9 -29 28 -29 21 0 24 5 27 41
3 39 1 42 -23 42 -15 0 -29 -6 -31 -13z m34 -35 c-1 -21 -6 -30 -17 -29 -9 0
-11 3 -5 5 6 2 8 19 6 36 -3 20 -1 29 6 24 6 -3 10 -20 10 -36z"/>
<path d="M5066 5452 c-4 -6 3 -8 16 -5 23 6 23 6 -1 -14 -28 -23 -21 -43 15
-43 22 0 25 4 22 33 -2 24 -8 33 -25 35 -11 2 -24 -1 -27 -6z m30 -49 c-10
-10 -19 5 -10 18 6 11 8 11 12 0 2 -7 1 -15 -2 -18z"/>
<path d="M713 5401 c0 -11 5 -17 9 -15 11 7 10 34 -1 34 -6 0 -9 -9 -8 -19z"/>
<path d="M5922 5358 c-27 -27 -7 -78 29 -78 10 0 21 4 24 10 4 6 -4 9 -17 7
-19 -2 -23 3 -23 28 0 25 4 30 23 28 13 -2 21 1 17 7 -8 14 -38 13 -53 -2z"/>
<path d="M6000 5356 c-28 -35 11 -93 48 -70 35 22 22 84 -18 84 -10 0 -23 -7
-30 -14z m45 -32 c0 -19 -5 -29 -15 -29 -16 0 -25 28 -16 51 10 25 31 10 31
-22z"/>
<path d="M6080 5325 c0 -40 2 -45 23 -45 29 0 47 18 47 45 0 27 -18 45 -47 45
-21 0 -23 -5 -23 -45z m45 0 c0 -16 -6 -30 -12 -32 -9 -3 -13 7 -13 32 0 25 4
35 13 33 6 -3 12 -17 12 -33z"/>
<path d="M6202 5358 c-27 -27 -7 -78 29 -78 10 0 21 4 24 10 4 6 -4 9 -17 7
-19 -2 -23 3 -23 28 0 25 4 30 23 28 13 -2 21 1 17 7 -8 14 -38 13 -53 -2z"/>
<path d="M6340 5325 c0 -25 5 -45 10 -45 6 0 10 20 10 45 0 25 -4 45 -10 45
-5 0 -10 -20 -10 -45z"/>
<path d="M6440 5326 c0 -43 1 -45 28 -43 23 2 27 7 27 31 0 16 -5 31 -11 33
-7 2 -9 -8 -6 -28 3 -23 1 -30 -7 -25 -7 4 -11 15 -10 24 3 33 -1 52 -11 52
-5 0 -10 -20 -10 -44z"/>
<path d="M6739 5353 c-1 -10 -1 -25 0 -35 1 -9 -3 -20 -10 -24 -8 -5 -10 2 -7
25 3 20 1 30 -6 28 -6 -2 -11 -17 -11 -33 0 -24 4 -29 28 -31 26 -2 27 0 27
43 0 41 -19 65 -21 27z"/>
<path d="M6274 5326 c-7 -30 1 -46 26 -46 21 0 33 25 25 51 -9 28 -43 24 -51
-5z m36 -11 c0 -14 -4 -25 -10 -25 -5 0 -10 11 -10 25 0 14 5 25 10 25 6 0 10
-11 10 -25z"/>
<path d="M6376 5342 c-4 -6 3 -8 16 -5 23 6 23 6 -1 -14 -28 -23 -21 -43 15
-43 22 0 25 4 22 33 -2 24 -8 33 -25 35 -11 2 -24 -1 -27 -6z m30 -49 c-10
-10 -19 5 -10 18 6 11 8 11 12 0 2 -7 1 -15 -2 -18z"/>
<path d="M6514 5326 c-7 -30 1 -46 26 -46 21 0 33 25 25 51 -9 28 -43 24 -51
-5z m36 -11 c0 -14 -4 -25 -10 -25 -5 0 -10 11 -10 25 0 14 5 25 10 25 6 0 10
-11 10 -25z"/>
<path d="M6580 5315 c0 -19 5 -35 10 -35 6 0 10 13 10 29 0 16 6 32 13 34 6 3
2 6 -10 6 -20 1 -23 -4 -23 -34z"/>
<path d="M6636 5342 c-4 -6 3 -8 16 -5 23 6 23 6 -1 -14 -28 -23 -21 -43 15
-43 22 0 25 4 22 33 -2 24 -8 33 -25 35 -11 2 -24 -1 -27 -6z m30 -49 c-10
-10 -19 5 -10 18 6 11 8 11 12 0 2 -7 1 -15 -2 -18z"/>
<path d="M6774 5326 c-7 -30 1 -46 26 -46 21 0 33 25 25 51 -9 28 -43 24 -51
-5z m36 -11 c0 -14 -4 -25 -10 -25 -5 0 -10 11 -10 25 0 14 5 25 10 25 6 0 10
-11 10 -25z"/>
<path d="M6840 5315 c0 -19 5 -35 10 -35 6 0 10 13 10 29 0 16 6 32 13 34 6 3
2 6 -10 6 -20 1 -23 -4 -23 -34z"/>
<path d="M1570 5231 c-13 -26 -13 -53 3 -74 10 -15 12 -9 12 38 0 30 -1 55 -2
55 -1 0 -7 -9 -13 -19z"/>
<path d="M1604 5237 c-3 -9 -4 -28 -2 -44 2 -22 8 -28 28 -28 23 0 25 4 25 40
0 34 -3 40 -23 43 -13 2 -24 -3 -28 -11z m36 -32 c0 -19 -4 -35 -10 -35 -5 0
-10 16 -10 35 0 19 5 35 10 35 6 0 10 -16 10 -35z"/>
<path d="M1775 5195 c0 -47 2 -53 13 -38 6 9 12 26 12 38 0 12 -6 29 -12 38
-11 15 -13 9 -13 -38z"/>
<path d="M1700 5194 c0 -19 5 -34 10 -34 6 0 10 11 10 24 0 14 5 28 10 31 6 4
10 -7 10 -24 0 -17 5 -31 11 -31 6 0 9 14 7 32 -3 28 -7 33 -30 35 -26 2 -28
-1 -28 -33z"/>
<path d="M3110 5191 c-13 -26 -13 -53 3 -74 10 -15 12 -9 12 38 0 30 -1 55 -2
55 -1 0 -7 -9 -13 -19z"/>
<path d="M3144 5197 c-3 -9 -4 -28 -2 -44 2 -22 8 -28 28 -28 23 0 25 4 25 40
0 34 -3 40 -23 43 -13 2 -24 -3 -28 -11z m36 -32 c0 -19 -4 -35 -10 -35 -5 0
-10 16 -10 35 0 19 5 35 10 35 6 0 10 -16 10 -35z"/>
<path d="M3315 5155 c0 -47 2 -53 13 -38 6 9 12 26 12 38 0 12 -6 29 -12 38
-11 15 -13 9 -13 -38z"/>
<path d="M1673 5161 c0 -11 5 -17 9 -15 11 7 10 34 -1 34 -6 0 -9 -9 -8 -19z"/>
<path d="M1570 4921 c-13 -26 -13 -53 3 -74 10 -15 12 -9 12 38 0 30 -1 55 -2
55 -1 0 -7 -9 -13 -19z"/>
<path d="M1622 4928 c-15 -15 -16 -32 -2 -23 6 4 10 -7 10 -24 0 -17 5 -31 10
-31 6 0 10 20 10 45 0 46 -7 54 -28 33z"/>
<path d="M1722 4928 c-15 -15 -16 -32 -2 -23 6 4 10 -7 10 -24 0 -17 5 -31 10
-31 6 0 10 20 10 45 0 46 -7 54 -28 33z"/>
<path d="M1775 4885 c0 -47 2 -53 13 -38 6 9 12 26 12 38 0 12 -6 29 -12 38
-11 15 -13 9 -13 -38z"/>
<path d="M1673 4851 c0 -11 5 -17 9 -15 11 7 10 34 -1 34 -6 0 -9 -9 -8 -19z"/>
<path d="M1838 4793 l392 -3 -2 -777 -3 -776 -370 -124 c-203 -67 -378 -123
-387 -123 -17 0 -18 19 -18 280 0 260 -1 280 -17 279 -11 0 -13 -3 -5 -6 9 -3
12 -70 12 -284 l0 -279 23 0 c12 0 189 -56 392 -123 l370 -124 3 -461 2 -462
-397 -3 -398 -2 402 -3 403 -2 2 467 3 466 370 124 c337 112 376 123 442 123
l73 0 0 200 0 200 63 0 c59 0 65 -2 85 -30 15 -20 31 -30 48 -30 32 0 74 42
74 74 0 29 -42 66 -76 66 -27 0 -64 -32 -64 -55 0 -12 -14 -15 -70 -15 l-70 0
0 -200 0 -200 -68 0 c-59 0 -110 14 -437 123 l-370 124 -3 781 -2 782 -398 -2
-397 -3 393 -2z m1530 -1359 c28 -19 28 -51 0 -81 -27 -29 -62 -29 -82 -1 -44
63 19 126 82 82z m-770 -325 c200 -67 361 -123 359 -125 -2 -3 -166 -59 -363
-124 l-359 -120 -363 121 c-200 67 -361 123 -359 125 4 4 703 241 717 243 3 1
168 -53 368 -120z"/>
<path d="M2118 3013 c7 -2 12 -22 12 -44 0 -21 5 -39 10 -39 6 0 10 18 10 39
0 22 5 42 13 44 6 3 -4 5 -23 5 -19 0 -29 -2 -22 -5z"/>
<path d="M2184 2986 c-15 -39 23 -74 50 -46 8 9 6 11 -11 5 -14 -4 -23 -2 -23
4 0 6 9 11 21 11 14 0 19 5 17 18 -4 22 -46 29 -54 8z m36 -6 c0 -5 -4 -10
-10 -10 -5 0 -10 5 -10 10 0 6 5 10 10 10 6 0 10 -4 10 -10z"/>
<path d="M2250 2964 c0 -19 5 -34 10 -34 6 0 10 11 10 24 0 14 5 28 10 31 6 4
10 -7 10 -24 0 -17 5 -31 10 -31 6 0 10 11 10 24 0 14 5 28 10 31 6 4 10 -7
10 -24 0 -17 5 -31 11 -31 6 0 9 14 7 32 -3 31 -5 33 -50 34 l-48 2 0 -34z"/>
<path d="M780 4601 l-5 -84 -369 -123 c-203 -68 -371 -125 -373 -128 -2 -2
134 -50 304 -106 169 -57 311 -108 315 -114 4 -6 8 -23 8 -38 0 -16 5 -28 10
-28 6 0 10 14 10 30 0 17 5 30 11 30 8 0 10 -14 6 -42 -5 -39 -4 -41 9 -24 8
11 14 28 14 38 0 21 1 21 34 8 25 -9 26 -13 26 -85 l0 -75 -290 0 -290 0 2
-292 3 -293 603 -3 602 -2 -2 292 -3 293 -308 3 -308 2 3 77 3 76 373 125
c205 68 371 126 369 128 -2 3 -170 60 -373 128 l-369 123 -5 84 -6 84 -4 -84z
m364 -211 c197 -65 361 -121 363 -124 2 -2 -160 -59 -360 -125 -389 -130 -388
-130 -439 -84 -10 9 -18 11 -18 5 0 -6 -142 37 -316 95 -173 58 -313 107 -311
109 4 4 704 241 717 243 3 1 167 -53 364 -119z m246 -820 l0 -280 -590 0 -590
0 0 280 0 280 590 0 590 0 0 -280z"/>
<path d="M542 4288 c-29 -29 -3 -84 35 -76 22 4 31 48 10 48 -11 0 -13 -7 -10
-21 4 -16 2 -20 -8 -17 -8 3 -14 18 -14 34 0 24 4 29 23 27 13 -2 21 1 17 7
-8 14 -38 13 -53 -2z"/>
<path d="M614 4266 c-15 -39 23 -74 50 -46 8 9 6 11 -11 5 -14 -4 -23 -2 -23
4 0 6 9 11 21 11 14 0 19 5 17 18 -4 22 -46 29 -54 8z m36 -6 c0 -5 -4 -10
-10 -10 -5 0 -10 5 -10 10 0 6 5 10 10 10 6 0 10 -4 10 -10z"/>
<path d="M680 4245 c0 -19 5 -35 10 -35 6 0 10 13 10 29 0 16 6 32 13 34 6 3
2 6 -10 6 -20 1 -23 -4 -23 -34z"/>
<path d="M734 4266 c-15 -39 23 -74 50 -46 8 9 6 11 -11 5 -14 -4 -23 -2 -23
4 0 6 9 11 21 11 14 0 19 5 17 18 -4 22 -46 29 -54 8z m36 -6 c0 -5 -4 -10
-10 -10 -5 0 -10 5 -10 10 0 6 5 10 10 10 6 0 10 -4 10 -10z"/>
<path d="M800 4244 c0 -19 5 -34 10 -34 6 0 10 11 10 24 0 14 5 28 10 31 6 4
10 -7 10 -24 0 -17 5 -31 11 -31 6 0 9 14 7 32 -3 28 -7 33 -30 35 -26 2 -28
-1 -28 -33z"/>
<path d="M874 4266 c-15 -39 23 -74 50 -46 8 9 6 11 -11 5 -20 -5 -23 -3 -23
20 0 22 3 25 21 20 15 -5 19 -4 15 4 -10 16 -46 14 -52 -3z"/>
<path d="M940 4245 c0 -19 5 -35 10 -35 6 0 10 16 10 35 0 19 -4 35 -10 35 -5
0 -10 -16 -10 -35z"/>
<path d="M976 4272 c-4 -6 3 -8 16 -5 23 6 23 6 -1 -14 -28 -23 -21 -43 15
-43 22 0 25 4 22 33 -2 24 -8 33 -25 35 -11 2 -24 -1 -27 -6z m30 -49 c-10
-10 -19 5 -10 18 6 11 8 11 12 0 2 -7 1 -15 -2 -18z"/>
<path d="M412 3598 c-15 -15 -15 -51 0 -66 15 -15 45 -16 53 -2 4 6 -4 9 -17
7 -19 -2 -23 3 -23 28 0 25 4 30 23 28 13 -2 21 1 17 7 -8 14 -38 13 -53 -2z"/>
<path d="M550 3565 c0 -25 5 -45 10 -45 6 0 10 20 10 45 0 25 -4 45 -10 45 -5
0 -10 -20 -10 -45z"/>
<path d="M650 3566 c0 -43 1 -45 28 -43 23 2 27 7 27 31 0 16 -5 31 -11 33 -7
2 -9 -8 -6 -28 3 -23 1 -30 -7 -25 -7 4 -11 15 -10 24 3 33 -1 52 -11 52 -5 0
-10 -20 -10 -44z"/>
<path d="M949 3593 c-1 -10 -1 -25 0 -35 1 -9 -3 -20 -10 -24 -8 -5 -10 2 -7
25 3 20 1 30 -6 28 -6 -2 -11 -17 -11 -33 0 -24 4 -29 28 -31 26 -2 27 0 27
43 0 41 -19 65 -21 27z"/>
<path d="M1134 3599 c-4 -8 0 -9 15 -4 28 8 28 -15 1 -40 -28 -26 -25 -35 13
-34 25 1 27 3 9 6 l-24 5 22 23 c13 14 20 31 17 39 -7 18 -43 21 -53 5z"/>
<path d="M484 3566 c-7 -30 1 -46 26 -46 21 0 33 25 25 51 -9 28 -43 24 -51
-5z m36 -11 c0 -14 -4 -25 -10 -25 -5 0 -10 11 -10 25 0 14 5 25 10 25 6 0 10
-11 10 -25z"/>
<path d="M586 3582 c-4 -6 3 -8 16 -5 23 6 23 6 -1 -14 -28 -23 -21 -43 15
-43 22 0 25 4 22 33 -2 24 -8 33 -25 35 -11 2 -24 -1 -27 -6z m30 -49 c-10
-10 -19 5 -10 18 6 11 8 11 12 0 2 -7 1 -15 -2 -18z"/>
<path d="M724 3566 c-7 -30 1 -46 26 -46 21 0 33 25 25 51 -9 28 -43 24 -51
-5z m36 -11 c0 -14 -4 -25 -10 -25 -5 0 -10 11 -10 25 0 14 5 25 10 25 6 0 10
-11 10 -25z"/>
<path d="M790 3555 c0 -19 5 -35 10 -35 6 0 10 13 10 29 0 16 6 32 13 34 6 3
2 6 -10 6 -20 1 -23 -4 -23 -34z"/>
<path d="M846 3582 c-4 -6 3 -8 16 -5 23 6 23 6 -1 -14 -28 -23 -21 -43 15
-43 22 0 25 4 22 33 -2 24 -8 33 -25 35 -11 2 -24 -1 -27 -6z m30 -49 c-10
-10 -19 5 -10 18 6 11 8 11 12 0 2 -7 1 -15 -2 -18z"/>
<path d="M984 3576 c-10 -26 1 -51 22 -54 24 -3 38 20 29 49 -7 22 -43 25 -51
5z m36 -21 c0 -14 -4 -25 -10 -25 -5 0 -10 11 -10 25 0 14 5 25 10 25 6 0 10
-11 10 -25z"/>
<path d="M1050 3555 c0 -19 5 -35 10 -35 6 0 10 13 10 29 0 16 6 32 13 34 6 3
2 6 -10 6 -20 1 -23 -4 -23 -34z"/>
<path d="M490 4591 c-13 -26 -13 -53 3 -74 10 -15 12 -9 12 38 0 30 -1 55 -2
55 -1 0 -7 -9 -13 -19z"/>
<path d="M524 4597 c-3 -9 -4 -28 -2 -44 2 -22 8 -28 28 -28 23 0 25 4 25 40
0 34 -3 40 -23 43 -13 2 -24 -3 -28 -11z m36 -32 c0 -19 -4 -35 -10 -35 -5 0
-10 16 -10 35 0 19 5 35 10 35 6 0 10 -16 10 -35z"/>
<path d="M695 4555 c0 -47 2 -53 13 -38 6 9 12 26 12 38 0 12 -6 29 -12 38
-11 15 -13 9 -13 -38z"/>
<path d="M620 4554 c0 -19 5 -34 10 -34 6 0 10 11 10 24 0 14 5 28 10 31 6 4
10 -7 10 -24 0 -17 5 -31 11 -31 6 0 9 14 7 32 -3 28 -7 33 -30 35 -26 2 -28
-1 -28 -33z"/>
<path d="M593 4521 c0 -11 5 -17 9 -15 11 7 10 34 -1 34 -6 0 -9 -9 -8 -19z"/>
<path d="M490 4051 c-13 -26 -13 -53 3 -74 10 -15 12 -9 12 38 0 30 -1 55 -2
55 -1 0 -7 -9 -13 -19z"/>
<path d="M524 4057 c-3 -9 -4 -28 -2 -44 2 -22 8 -28 28 -28 23 0 25 4 25 40
0 34 -3 40 -23 43 -13 2 -24 -3 -28 -11z m36 -32 c0 -19 -4 -35 -10 -35 -5 0
-10 16 -10 35 0 19 5 35 10 35 6 0 10 -16 10 -35z"/>
<path d="M620 4016 c0 -20 5 -36 10 -36 6 0 10 11 10 25 0 14 0 28 1 32 0 4
-4 9 -10 11 -7 2 -11 -11 -11 -32z"/>
<path d="M593 3981 c0 -11 5 -17 9 -15 11 7 10 34 -1 34 -6 0 -9 -9 -8 -19z"/>
<path d="M4340 3870 c-11 -11 -20 -27 -20 -35 0 -13 -27 -15 -185 -15 l-185 0
0 -215 0 -215 -177 -3 -178 -2 178 -3 177 -2 0 -205 0 -205 183 0 183 0 22
-30 c15 -20 31 -30 48 -30 32 0 74 42 74 74 0 29 -42 66 -76 66 -27 0 -64 -32
-64 -55 0 -13 -27 -15 -180 -15 l-180 0 0 79 0 78 177 7 176 8 24 -31 c16 -20
33 -31 49 -31 32 0 74 42 74 74 0 29 -42 66 -76 66 -27 0 -64 -32 -64 -55 0
-11 -13 -15 -52 -15 -29 0 -110 -3 -180 -7 l-128 -6 0 86 0 87 183 0 183 0 22
-30 c15 -20 31 -30 48 -30 32 0 74 42 74 74 0 29 -42 66 -76 66 -27 0 -64 -32
-64 -55 0 -13 -27 -15 -185 -15 l-185 0 0 80 0 80 188 0 188 0 22 -30 c15 -20
31 -30 48 -30 32 0 74 42 74 74 0 29 -42 66 -76 66 -27 0 -64 -32 -64 -55 0
-13 -28 -15 -190 -15 l-190 0 0 74 0 73 182 8 181 7 24 -31 c16 -20 33 -31 49
-31 32 0 74 42 74 74 0 29 -42 66 -76 66 -27 0 -64 -32 -64 -55 0 -12 -13 -15
-57 -15 -32 0 -115 -3 -185 -7 l-128 -6 0 76 0 77 178 0 178 0 22 -30 c28 -37
64 -39 97 -5 33 32 32 68 -1 94 -34 26 -68 27 -94 1z m88 -6 c28 -19 28 -51 0
-81 -27 -29 -62 -29 -82 -1 -44 63 19 126 82 82z m10 -150 c28 -19 28 -51 0
-81 -27 -29 -62 -29 -82 -1 -44 63 19 126 82 82z m10 -170 c28 -19 28 -51 0
-81 -27 -29 -62 -29 -82 -1 -44 63 19 126 82 82z m-10 -170 c28 -19 28 -51 0
-81 -27 -29 -62 -29 -82 -1 -44 63 19 126 82 82z m-10 -170 c28 -19 28 -51 0
-81 -27 -29 -62 -29 -82 -1 -44 63 19 126 82 82z m0 -180 c28 -19 28 -51 0
-81 -27 -29 -62 -29 -82 -1 -44 63 19 126 82 82z"/>
<path d="M4500 3815 c0 -25 5 -45 10 -45 6 0 10 12 10 28 l1 27 15 -27 c21
-41 34 -34 34 17 0 25 -4 45 -10 45 -5 0 -10 -12 -10 -27 l-1 -28 -15 28 c-21
40 -34 33 -34 -18z"/>
<path d="M4584 3826 c-10 -26 1 -51 23 -54 17 -3 24 3 29 22 3 14 3 30 -1 35
-9 16 -45 13 -51 -3z m36 -21 c0 -14 -4 -25 -10 -25 -5 0 -10 11 -10 25 0 14
5 25 10 25 6 0 10 -11 10 -25z"/>
<path d="M4650 3804 c0 -19 5 -34 10 -34 6 0 10 11 10 24 0 14 5 28 10 31 6 4
10 -7 10 -24 0 -17 5 -31 10 -31 6 0 10 11 10 24 0 14 5 28 10 31 6 4 10 -7
10 -24 0 -17 5 -31 11 -31 6 0 9 14 7 32 -3 31 -5 33 -50 34 l-48 2 0 -34z"/>
<path d="M4764 3826 c-15 -39 23 -74 50 -46 8 9 6 11 -11 5 -14 -4 -23 -2 -23
4 0 6 9 11 21 11 14 0 19 5 17 18 -4 22 -46 29 -54 8z m36 -6 c0 -5 -4 -10
-10 -10 -5 0 -10 5 -10 10 0 6 5 10 10 10 6 0 10 -4 10 -10z"/>
<path d="M4654 3700 c-12 -12 -6 -80 7 -80 7 0 12 38 8 66 0 4 5 11 13 15 10
7 10 9 -2 9 -9 0 -20 -4 -26 -10z"/>
<path d="M1540 3671 c-13 -26 -13 -53 3 -74 10 -15 12 -9 12 38 0 30 -1 55 -2
55 -1 0 -7 -9 -13 -19z"/>
<path d="M1574 3677 c-3 -9 -4 -28 -2 -44 2 -22 8 -28 28 -28 23 0 25 4 25 40
0 34 -3 40 -23 43 -13 2 -24 -3 -28 -11z m36 -32 c0 -19 -4 -35 -10 -35 -5 0
-10 16 -10 35 0 19 5 35 10 35 6 0 10 -16 10 -35z"/>
<path d="M1745 3635 c0 -47 2 -53 13 -38 6 9 12 26 12 38 0 12 -6 29 -12 38
-11 15 -13 9 -13 -38z"/>
<path d="M4514 3676 c-15 -39 23 -74 50 -46 8 9 6 11 -11 5 -20 -5 -23 -3 -23
20 0 22 3 25 21 20 15 -5 19 -4 15 4 -10 16 -46 14 -52 -3z"/>
<path d="M4580 3644 c0 -24 5 -44 10 -44 10 0 14 19 11 52 -1 9 3 20 10 24 8
5 10 -2 7 -25 -3 -20 -1 -30 6 -28 6 2 11 17 11 33 0 24 -4 29 -27 31 -27 2
-28 0 -28 -43z"/>
<path d="M6190 3671 c-13 -26 -13 -53 3 -74 10 -15 12 -9 12 38 0 30 -1 55 -2
55 -1 0 -7 -9 -13 -19z"/>
<path d="M6224 3677 c-3 -9 -4 -28 -2 -44 2 -22 8 -28 28 -28 23 0 25 4 25 40
0 34 -3 40 -23 43 -13 2 -24 -3 -28 -11z m36 -32 c0 -19 -4 -35 -10 -35 -5 0
-10 16 -10 35 0 19 5 35 10 35 6 0 10 -16 10 -35z"/>
<path d="M6395 3635 c0 -47 2 -53 13 -38 6 9 12 26 12 38 0 12 -6 29 -12 38
-11 15 -13 9 -13 -38z"/>
<path d="M1670 3634 c0 -19 5 -34 10 -34 6 0 10 11 10 24 0 14 5 28 10 31 6 4
10 -7 10 -24 0 -17 5 -31 11 -31 6 0 9 14 7 32 -3 28 -7 33 -30 35 -26 2 -28
-1 -28 -33z"/>
<path d="M6320 3634 c0 -19 5 -34 10 -34 6 0 10 11 10 24 0 14 5 28 10 31 6 4
10 -7 10 -24 0 -17 5 -31 11 -31 6 0 9 14 7 32 -3 28 -7 33 -30 35 -26 2 -28
-1 -28 -33z"/>
<path d="M1643 3601 c0 -11 5 -17 9 -15 11 7 10 34 -1 34 -6 0 -9 -9 -8 -19z"/>
<path d="M6293 3601 c0 -11 5 -17 9 -15 11 7 10 34 -1 34 -6 0 -9 -9 -8 -19z"/>
<path d="M4699 3523 c-1 -10 -1 -25 0 -35 1 -9 -3 -20 -10 -24 -8 -5 -10 2 -7
25 3 20 1 30 -6 28 -6 -2 -11 -17 -11 -33 0 -24 4 -29 28 -31 26 -2 27 0 27
43 0 41 -19 65 -21 27z"/>
<path d="M4524 3506 c-15 -39 23 -74 50 -46 8 9 6 11 -11 5 -14 -4 -23 -2 -23
4 0 6 9 11 21 11 14 0 19 5 17 18 -4 22 -46 29 -54 8z m36 -6 c0 -5 -4 -10
-10 -10 -5 0 -10 5 -10 10 0 6 5 10 10 10 6 0 10 -4 10 -10z"/>
<path d="M4590 3484 c0 -19 5 -34 10 -34 6 0 10 11 10 24 0 14 5 28 10 31 6 4
10 -7 10 -24 0 -17 5 -31 11 -31 6 0 9 14 7 32 -3 28 -7 33 -30 35 -26 2 -28
-1 -28 -33z"/>
<path d="M4734 3506 c-15 -39 23 -74 50 -46 8 9 6 11 -11 5 -14 -4 -23 -2 -23
4 0 6 9 11 21 11 14 0 19 5 17 18 -4 22 -46 29 -54 8z m36 -6 c0 -5 -4 -10
-10 -10 -5 0 -10 5 -10 10 0 6 5 10 10 10 6 0 10 -4 10 -10z"/>
<path d="M4800 3485 c0 -19 5 -35 10 -35 6 0 10 13 10 29 0 16 6 32 13 34 6 3
2 6 -10 6 -20 1 -23 -4 -23 -34z"/>
<path d="M4854 3506 c-15 -39 23 -74 50 -46 8 9 6 11 -11 5 -14 -4 -23 -2 -23
4 0 6 9 11 21 11 14 0 19 5 17 18 -4 22 -46 29 -54 8z m36 -6 c0 -5 -4 -10
-10 -10 -5 0 -10 5 -10 10 0 6 5 10 10 10 6 0 10 -4 10 -10z"/>
<path d="M4927 3513 c-13 -12 -7 -50 11 -66 16 -15 19 -15 30 4 12 19 11 20
-7 14 -18 -5 -21 -2 -21 20 0 22 3 25 21 20 15 -5 19 -4 15 4 -8 12 -39 15
-49 4z"/>
<path d="M4994 3496 c-7 -30 1 -46 26 -46 21 0 33 25 25 51 -9 28 -43 24 -51
-5z m36 -11 c0 -14 -4 -25 -10 -25 -5 0 -10 11 -10 25 0 14 5 25 10 25 6 0 10
-11 10 -25z"/>
<path d="M3440 3385 c0 -25 5 -45 10 -45 6 0 10 20 10 45 0 25 -4 45 -10 45
-5 0 -10 -20 -10 -45z"/>
<path d="M3470 3385 c0 -40 2 -45 23 -45 29 0 47 18 47 45 0 27 -18 45 -47 45
-21 0 -23 -5 -23 -45z m45 0 c0 -16 -6 -30 -12 -32 -9 -3 -13 7 -13 32 0 25 4
35 13 33 6 -3 12 -17 12 -33z"/>
<path d="M3560 3390 c0 -32 1 -33 17 -17 16 16 16 18 0 34 -16 16 -17 15 -17
-17z"/>
<path d="M7620 3370 c-11 -11 -20 -27 -20 -35 0 -12 -21 -15 -117 -17 l-118
-2 117 -6 c112 -5 117 -6 138 -32 27 -35 63 -36 95 -3 33 32 32 68 -1 94 -34
26 -68 27 -94 1z m88 -6 c28 -19 28 -51 0 -81 -27 -29 -62 -29 -82 -1 -44 63
19 126 82 82z"/>
<path d="M4790 3325 c0 -25 5 -45 10 -45 6 0 10 20 10 45 0 25 -4 45 -10 45
-5 0 -10 -20 -10 -45z"/>
<path d="M7780 3315 c0 -25 5 -45 10 -45 6 0 10 20 10 45 0 25 -4 45 -10 45
-5 0 -10 -20 -10 -45z"/>
<path d="M7810 3315 c0 -40 2 -45 23 -45 29 0 47 18 47 45 0 27 -18 45 -47 45
-21 0 -23 -5 -23 -45z m45 0 c0 -16 -6 -30 -12 -32 -9 -3 -13 7 -13 32 0 25 4
35 13 33 6 -3 12 -17 12 -33z"/>
<path d="M8060 3315 c0 -25 5 -45 10 -45 6 0 10 20 10 45 0 25 -4 45 -10 45
-5 0 -10 -20 -10 -45z"/>
<path d="M8160 3316 c0 -43 1 -45 28 -43 23 2 27 7 27 31 0 16 -5 31 -11 33
-7 2 -9 -8 -6 -28 3 -23 1 -30 -7 -25 -7 4 -11 15 -10 24 3 33 -1 52 -11 52
-5 0 -10 -20 -10 -44z"/>
<path d="M8459 3343 c-1 -10 -1 -25 0 -35 1 -9 -3 -20 -10 -24 -8 -5 -10 2 -7
25 3 20 1 30 -6 28 -6 -2 -11 -17 -11 -33 0 -24 4 -29 28 -31 26 -2 27 0 27
43 0 41 -19 65 -21 27z"/>
<path d="M4514 3336 c-15 -39 23 -74 50 -46 8 9 6 11 -11 5 -14 -4 -23 -2 -23
4 0 6 9 11 21 11 14 0 19 5 17 18 -4 22 -46 29 -54 8z m36 -6 c0 -5 -4 -10
-10 -10 -5 0 -10 5 -10 10 0 6 5 10 10 10 6 0 10 -4 10 -10z"/>
<path d="M4580 3314 c0 -19 5 -34 10 -34 6 0 10 11 10 24 0 14 5 28 10 31 6 4
10 -7 10 -24 0 -17 5 -31 10 -31 6 0 10 11 10 24 0 14 5 28 10 31 6 4 10 -7
10 -24 0 -17 5 -31 11 -31 6 0 9 14 7 32 -3 31 -5 33 -50 34 l-48 2 0 -34z"/>
<path d="M4696 3342 c-4 -6 3 -8 16 -5 23 6 23 6 -1 -14 -28 -23 -21 -43 15
-43 22 0 25 4 22 33 -2 24 -8 33 -25 35 -11 2 -24 -1 -27 -6z m30 -49 c-10
-10 -19 5 -10 18 6 11 8 11 12 0 2 -7 1 -15 -2 -18z"/>
<path d="M4760 3315 c0 -19 5 -35 10 -35 6 0 10 16 10 35 0 19 -4 35 -10 35
-5 0 -10 -16 -10 -35z"/>
<path d="M7924 3326 c-15 -39 23 -74 50 -46 8 9 6 11 -11 5 -20 -5 -23 -3 -23
20 0 22 3 25 21 20 15 -5 19 -4 15 4 -10 16 -46 14 -52 -3z"/>
<path d="M7994 3316 c-7 -30 1 -46 26 -46 21 0 33 25 25 51 -9 28 -43 24 -51
-5z m36 -11 c0 -14 -4 -25 -10 -25 -5 0 -10 11 -10 25 0 14 5 25 10 25 6 0 10
-11 10 -25z"/>
<path d="M8096 3332 c-4 -6 3 -8 16 -5 23 6 23 6 -1 -14 -28 -23 -21 -43 15
-43 22 0 25 4 22 33 -2 24 -8 33 -25 35 -11 2 -24 -1 -27 -6z m30 -49 c-10
-10 -19 5 -10 18 6 11 8 11 12 0 2 -7 1 -15 -2 -18z"/>
<path d="M8234 3316 c-7 -30 1 -46 26 -46 21 0 33 25 25 51 -9 28 -43 24 -51
-5z m36 -11 c0 -14 -4 -25 -10 -25 -5 0 -10 11 -10 25 0 14 5 25 10 25 6 0 10
-11 10 -25z"/>
<path d="M8300 3305 c0 -19 5 -35 10 -35 6 0 10 13 10 29 0 16 6 32 13 34 6 3
2 6 -10 6 -20 1 -23 -4 -23 -34z"/>
<path d="M8356 3332 c-4 -6 3 -8 16 -5 23 6 23 6 -1 -14 -28 -23 -21 -43 15
-43 22 0 25 4 22 33 -2 24 -8 33 -25 35 -11 2 -24 -1 -27 -6z m30 -49 c-10
-10 -19 5 -10 18 6 11 8 11 12 0 2 -7 1 -15 -2 -18z"/>
<path d="M8494 3316 c-7 -30 1 -46 26 -46 21 0 33 25 25 51 -9 28 -43 24 -51
-5z m36 -11 c0 -14 -4 -25 -10 -25 -5 0 -10 11 -10 25 0 14 5 25 10 25 6 0 10
-11 10 -25z"/>
<path d="M8560 3305 c0 -19 5 -35 10 -35 6 0 10 13 10 29 0 16 6 32 13 34 6 3
2 6 -10 6 -20 1 -23 -4 -23 -34z"/>
<path d="M750 3061 l-5 -204 -373 -125 c-205 -68 -371 -126 -369 -128 2 -3
170 -60 373 -128 l369 -123 3 -126 3 -127 -266 0 -265 0 2 -292 3 -293 603 -3
602 -2 -2 292 -3 293 -333 3 -333 2 3 127 3 126 369 123 c203 68 371 125 373
128 2 2 -164 60 -369 128 l-373 125 -5 204 -5 204 -5 -204z m368 -332 c200
-67 361 -123 359 -125 -2 -3 -166 -59 -363 -124 l-359 -120 -363 121 c-200 67
-361 123 -359 125 4 4 703 241 717 243 3 1 168 -53 368 -120z m292 -919 l0
-280 -590 0 -590 0 0 280 0 280 590 0 590 0 0 -280z"/>
<path d="M580 2595 c0 -44 0 -45 33 -44 23 1 26 3 10 6 -19 4 -23 11 -23 44 0
21 -4 39 -10 39 -5 0 -10 -20 -10 -45z"/>
<path d="M719 2623 c-1 -10 -1 -25 0 -35 1 -9 -3 -20 -10 -24 -8 -5 -10 2 -7
25 3 20 1 30 -6 28 -6 -2 -11 -17 -11 -33 0 -24 4 -29 28 -31 26 -2 27 0 27
43 0 41 -19 65 -21 27z"/>
<path d="M650 2585 c0 -19 5 -35 10 -35 6 0 10 16 10 35 0 19 -4 35 -10 35 -5
0 -10 -16 -10 -35z"/>
<path d="M754 2606 c-15 -39 23 -74 50 -46 8 9 6 11 -11 5 -14 -4 -23 -2 -23
4 0 6 9 11 21 11 14 0 19 5 17 18 -4 22 -46 29 -54 8z m36 -6 c0 -5 -4 -10
-10 -10 -5 0 -10 5 -10 10 0 6 5 10 10 10 6 0 10 -4 10 -10z"/>
<path d="M820 2585 c0 -19 5 -35 10 -35 6 0 10 13 10 29 0 16 6 32 13 34 6 3
2 6 -10 6 -20 1 -23 -4 -23 -34z"/>
<path d="M876 2612 c-4 -6 3 -8 16 -5 23 6 23 6 -1 -14 -28 -23 -21 -43 15
-43 22 0 25 4 22 33 -2 24 -8 33 -25 35 -11 2 -24 -1 -27 -6z m30 -49 c-10
-10 -19 5 -10 18 6 11 8 11 12 0 2 -7 1 -15 -2 -18z"/>
<path d="M432 1838 c-15 -15 -15 -51 0 -66 15 -15 45 -16 53 -2 4 6 -4 9 -17
7 -19 -2 -23 3 -23 28 0 25 4 30 23 28 13 -2 21 1 17 7 -8 14 -38 13 -53 -2z"/>
<path d="M570 1805 c0 -25 5 -45 10 -45 6 0 10 20 10 45 0 25 -4 45 -10 45 -5
0 -10 -20 -10 -45z"/>
<path d="M670 1806 c0 -43 1 -45 28 -43 23 2 27 7 27 31 0 16 -5 31 -11 33 -7
2 -9 -8 -6 -28 3 -23 1 -30 -7 -25 -7 4 -11 15 -10 24 3 33 -1 52 -11 52 -5 0
-10 -20 -10 -44z"/>
<path d="M969 1833 c-1 -10 -1 -25 0 -35 1 -9 -3 -20 -10 -24 -8 -5 -10 2 -7
25 3 20 1 30 -6 28 -6 -2 -11 -17 -11 -33 0 -24 4 -29 28 -31 26 -2 27 0 27
43 0 41 -19 65 -21 27z"/>
<path d="M1155 1840 c-5 -9 -1 -10 14 -5 22 7 30 -10 9 -18 -10 -4 -10 -6 0
-6 6 -1 12 -10 12 -22 0 -16 -4 -19 -22 -14 -18 6 -20 4 -12 -5 7 -6 20 -10
30 -8 15 3 19 12 19 43 0 33 -4 41 -22 43 -11 2 -24 -2 -28 -8z"/>
<path d="M504 1806 c-7 -30 1 -46 26 -46 21 0 33 25 25 51 -9 28 -43 24 -51
-5z m36 -11 c0 -14 -4 -25 -10 -25 -5 0 -10 11 -10 25 0 14 5 25 10 25 6 0 10
-11 10 -25z"/>
<path d="M606 1822 c-4 -6 3 -8 16 -5 23 6 23 6 -1 -14 -28 -23 -21 -43 15
-43 22 0 25 4 22 33 -2 24 -8 33 -25 35 -11 2 -24 -1 -27 -6z m30 -49 c-10
-10 -19 5 -10 18 6 11 8 11 12 0 2 -7 1 -15 -2 -18z"/>
<path d="M744 1806 c-7 -30 1 -46 26 -46 21 0 33 25 25 51 -9 28 -43 24 -51
-5z m36 -11 c0 -14 -4 -25 -10 -25 -5 0 -10 11 -10 25 0 14 5 25 10 25 6 0 10
-11 10 -25z"/>
<path d="M810 1795 c0 -19 5 -35 10 -35 6 0 10 13 10 29 0 16 6 32 13 34 6 3
2 6 -10 6 -20 1 -23 -4 -23 -34z"/>
<path d="M866 1822 c-4 -6 3 -8 16 -5 23 6 23 6 -1 -14 -28 -23 -21 -43 15
-43 22 0 25 4 22 33 -2 24 -8 33 -25 35 -11 2 -24 -1 -27 -6z m30 -49 c-10
-10 -19 5 -10 18 6 11 8 11 12 0 2 -7 1 -15 -2 -18z"/>
<path d="M1004 1806 c-7 -30 1 -46 26 -46 21 0 33 25 25 51 -9 28 -43 24 -51
-5z m36 -11 c0 -14 -4 -25 -10 -25 -5 0 -10 11 -10 25 0 14 5 25 10 25 6 0 10
-11 10 -25z"/>
<path d="M1070 1795 c0 -19 5 -35 10 -35 6 0 10 13 10 29 0 16 6 32 13 34 6 3
2 6 -10 6 -20 1 -23 -4 -23 -34z"/>
<path d="M7610 3190 c-11 -11 -20 -27 -20 -35 0 -12 -20 -15 -112 -17 l-113
-2 112 -5 c107 -6 112 -7 133 -33 27 -35 63 -36 95 -3 33 32 32 68 -1 94 -34
26 -68 27 -94 1z m88 -6 c28 -19 28 -51 0 -81 -27 -29 -62 -29 -82 -1 -44 63
19 126 82 82z"/>
<path d="M4503 3189 c-12 -12 -2 -71 12 -76 9 -3 12 74 3 83 -2 2 -9 -1 -15
-7z"/>
<path d="M4610 3155 c0 -25 5 -45 10 -45 6 0 10 20 10 45 0 25 -4 45 -10 45
-5 0 -10 -20 -10 -45z"/>
<path d="M4714 3190 c-12 -12 -6 -80 7 -80 7 0 12 38 8 66 0 4 5 11 13 15 10
7 10 9 -2 9 -9 0 -20 -4 -26 -10z"/>
<path d="M460 3171 c-13 -26 -13 -53 3 -74 10 -15 12 -9 12 38 0 30 -1 55 -2
55 -1 0 -7 -9 -13 -19z"/>
<path d="M494 3177 c-3 -9 -4 -28 -2 -44 2 -22 8 -28 28 -28 23 0 25 4 25 40
0 34 -3 40 -23 43 -13 2 -24 -3 -28 -11z m36 -32 c0 -19 -4 -35 -10 -35 -5 0
-10 16 -10 35 0 19 5 35 10 35 6 0 10 -16 10 -35z"/>
<path d="M665 3135 c0 -47 2 -53 13 -38 6 9 12 26 12 38 0 12 -6 29 -12 38
-11 15 -13 9 -13 -38z"/>
<path d="M4544 3166 c-15 -39 23 -74 50 -46 8 9 6 11 -11 5 -14 -4 -23 -2 -23
4 0 6 9 11 21 11 14 0 19 5 17 18 -4 22 -46 29 -54 8z m36 -6 c0 -5 -4 -10
-10 -10 -5 0 -10 5 -10 10 0 6 5 10 10 10 6 0 10 -4 10 -10z"/>
<path d="M4644 3166 c-15 -39 23 -74 50 -46 8 9 6 11 -11 5 -14 -4 -23 -2 -23
4 0 6 9 11 21 11 14 0 19 5 17 18 -4 22 -46 29 -54 8z m36 -6 c0 -5 -4 -10
-10 -10 -5 0 -10 5 -10 10 0 6 5 10 10 10 6 0 10 -4 10 -10z"/>
<path d="M4754 3156 c-7 -30 1 -46 26 -46 21 0 33 25 25 51 -9 28 -43 24 -51
-5z m36 -11 c0 -14 -4 -25 -10 -25 -5 0 -10 11 -10 25 0 14 5 25 10 25 6 0 10
-11 10 -25z"/>
<path d="M4820 3144 c0 -19 5 -34 10 -34 6 0 10 11 10 24 0 14 5 28 10 31 6 4
10 -7 10 -24 0 -17 5 -31 11 -31 6 0 9 14 7 32 -3 28 -7 33 -30 35 -26 2 -28
-1 -28 -33z"/>
<path d="M4894 3166 c-15 -39 23 -74 50 -46 8 9 6 11 -11 5 -14 -4 -23 -2 -23
4 0 6 9 11 21 11 14 0 19 5 17 18 -4 22 -46 29 -54 8z m36 -6 c0 -5 -4 -10
-10 -10 -5 0 -10 5 -10 10 0 6 5 10 10 10 6 0 10 -4 10 -10z"/>
<path d="M7770 3135 c0 -25 5 -45 10 -45 6 0 10 20 10 45 0 25 -4 45 -10 45
-5 0 -10 -20 -10 -45z"/>
<path d="M590 3134 c0 -19 5 -34 10 -34 6 0 10 11 10 24 0 14 5 28 10 31 6 4
10 -7 10 -24 0 -17 5 -31 11 -31 6 0 9 14 7 32 -3 28 -7 33 -30 35 -26 2 -28
-1 -28 -33z"/>
<path d="M7800 3124 c0 -19 5 -34 10 -34 6 0 10 11 10 24 0 14 5 28 10 31 6 4
10 -7 10 -24 0 -17 5 -31 11 -31 6 0 9 14 7 32 -3 28 -7 33 -30 35 -26 2 -28
-1 -28 -33z"/>
<path d="M7870 3125 c0 -19 5 -35 10 -35 6 0 10 16 10 35 0 19 -4 35 -10 35
-5 0 -10 -16 -10 -35z"/>
<path d="M7904 3146 c-15 -39 23 -74 50 -46 8 9 6 11 -11 5 -20 -5 -23 -3 -23
20 0 22 3 25 21 20 15 -5 19 -4 15 4 -10 16 -46 14 -52 -3z"/>
<path d="M7970 3125 c0 -19 5 -35 10 -35 6 0 10 16 10 35 0 19 -4 35 -10 35
-5 0 -10 -16 -10 -35z"/>
<path d="M8004 3136 c-7 -30 1 -46 26 -46 21 0 33 25 25 51 -9 28 -43 24 -51
-5z m36 -11 c0 -14 -4 -25 -10 -25 -5 0 -10 11 -10 25 0 14 5 25 10 25 6 0 10
-11 10 -25z"/>
<path d="M563 3101 c0 -11 5 -17 9 -15 11 7 10 34 -1 34 -6 0 -9 -9 -8 -19z"/>
<path d="M4640 2975 c0 -25 5 -45 10 -45 6 0 10 20 10 45 0 25 -4 45 -10 45
-5 0 -10 -20 -10 -45z"/>
<path d="M7600 3000 c-11 -11 -20 -27 -20 -35 0 -12 -19 -15 -107 -17 l-108
-2 107 -5 c101 -6 107 -7 128 -33 27 -35 63 -36 95 -3 33 32 32 68 -1 94 -34
26 -68 27 -94 1z m88 -6 c28 -19 28 -51 0 -81 -27 -29 -62 -29 -82 -1 -44 63
19 126 82 82z"/>
<path d="M4504 2989 c-4 -7 4 -20 17 -31 l24 -19 -24 6 c-16 5 -21 4 -17 -4 9
-14 43 -14 52 0 4 7 -4 20 -17 31 l-24 19 24 -6 c16 -5 21 -4 17 4 -9 14 -43
14 -52 0z"/>
<path d="M4576 2992 c-4 -6 3 -8 16 -5 23 6 23 6 -1 -14 -28 -23 -21 -43 15
-43 22 0 25 4 22 33 -2 24 -8 33 -25 35 -11 2 -24 -1 -27 -6z m30 -49 c-10
-10 -19 5 -10 18 6 11 8 11 12 0 2 -7 1 -15 -2 -18z"/>
<path d="M4676 2992 c-4 -6 3 -8 16 -5 23 6 23 6 -1 -14 -28 -23 -21 -43 15
-43 22 0 25 4 22 33 -2 24 -8 33 -25 35 -11 2 -24 -1 -27 -6z m30 -49 c-10
-10 -19 5 -10 18 6 11 8 11 12 0 2 -7 1 -15 -2 -18z"/>
<path d="M4740 2965 c0 -19 5 -35 10 -35 6 0 10 13 10 29 0 16 6 32 13 34 6 3
2 6 -10 6 -20 1 -23 -4 -23 -34z"/>
<path d="M4790 2965 c0 -19 5 -35 10 -35 6 0 10 16 10 35 0 19 -4 35 -10 35
-5 0 -10 -16 -10 -35z"/>
<path d="M4824 2976 c-7 -30 1 -46 26 -46 21 0 33 25 25 51 -9 28 -43 24 -51
-5z m36 -11 c0 -14 -4 -25 -10 -25 -5 0 -10 11 -10 25 0 14 5 25 10 25 6 0 10
-11 10 -25z"/>
<path d="M7760 2945 c0 -25 5 -45 10 -45 6 0 10 9 10 19 0 11 8 22 18 24 16 4
16 5 0 6 -10 0 -18 7 -18 15 0 8 8 17 18 19 10 3 6 5 -10 6 -27 1 -28 -1 -28
-44z"/>
<path d="M7820 2935 c0 -19 5 -35 10 -35 6 0 10 16 10 35 0 19 -4 35 -10 35
-5 0 -10 -16 -10 -35z"/>
<path d="M7850 2934 c0 -19 5 -34 10 -34 6 0 10 11 10 24 0 14 5 28 10 31 6 4
10 -7 10 -24 0 -17 5 -31 10 -31 6 0 10 11 10 24 0 14 5 28 10 31 6 4 10 -7
10 -24 0 -17 5 -31 11 -31 6 0 9 14 7 32 -3 31 -5 33 -50 34 l-48 2 0 -34z"/>
<path d="M2440 2075 l0 -505 -502 -3 -503 -2 508 -3 507 -2 0 505 0 505 760 0
760 0 0 -88 0 -87 -250 -83 c-137 -46 -250 -85 -250 -87 0 -2 170 -60 378
-129 l377 -126 375 125 375 125 312 0 313 0 0 -420 0 -420 315 0 314 0 3 -142
3 -143 603 -3 602 -2 -2 292 -3 293 -602 3 -603 2 0 -145 0 -145 -310 0 -310
0 0 420 0 420 -318 0 -317 0 -375 125 -375 125 -110 -36 c-60 -21 -116 -39
-122 -42 -10 -3 -13 18 -13 87 l0 91 -770 0 -770 0 0 -505z m2148 274 c200
-67 361 -123 359 -125 -2 -3 -166 -59 -363 -124 l-359 -120 -363 121 c-200 67
-361 123 -359 125 4 4 703 241 717 243 3 1 168 -53 368 -120z m2832 -959 l0
-280 -590 0 -590 0 0 280 0 280 590 0 590 0 0 -280z"/>
<path d="M3970 2216 c0 -25 5 -46 10 -46 6 0 10 6 10 14 0 8 10 16 23 18 16 2
22 10 22 28 0 21 -5 26 -32 28 -33 3 -33 3 -33 -42z m50 14 c0 -11 -7 -20 -15
-20 -8 0 -15 9 -15 20 0 11 7 20 15 20 8 0 15 -9 15 -20z"/>
<path d="M4175 2251 c-3 -6 -17 -11 -31 -11 -21 0 -24 -5 -24 -35 0 -19 5 -35
10 -35 6 0 10 14 10 30 0 38 27 41 32 3 5 -43 23 -37 21 8 -1 43 -7 57 -18 40z"/>
<path d="M4056 2232 c-4 -6 3 -8 16 -5 23 6 23 6 -1 -14 -28 -23 -21 -43 15
-43 22 0 25 4 22 33 -2 24 -8 33 -25 35 -11 2 -24 -1 -27 -6z m30 -49 c-10
-10 -19 5 -10 18 6 11 8 11 12 0 2 -7 1 -15 -2 -18z"/>
<path d="M4210 2205 c0 -19 5 -35 10 -35 6 0 10 16 10 35 0 19 -4 35 -10 35
-5 0 -10 -16 -10 -35z"/>
<path d="M4244 2226 c-15 -39 23 -74 50 -46 8 9 6 11 -11 5 -20 -5 -23 -3 -23
20 0 22 3 25 21 20 15 -5 19 -4 15 4 -10 16 -46 14 -52 -3z"/>
<path d="M4310 2205 c0 -19 5 -35 10 -35 6 0 10 16 10 35 0 19 -4 35 -10 35
-5 0 -10 -16 -10 -35z"/>
<path d="M4340 2194 c0 -24 5 -44 10 -44 10 0 14 19 11 52 -1 9 3 20 10 24 8
5 10 -2 7 -25 -3 -20 -1 -30 6 -28 6 2 11 17 11 33 0 24 -4 29 -27 31 -27 2
-28 0 -28 -43z"/>
<path d="M4416 2232 c-4 -6 3 -8 16 -5 23 6 23 6 -1 -14 -28 -23 -21 -43 15
-43 22 0 25 4 22 33 -2 24 -8 33 -25 35 -11 2 -24 -1 -27 -6z m30 -49 c-10
-10 -19 5 -10 18 6 11 8 11 12 0 2 -7 1 -15 -2 -18z"/>
<path d="M6620 1386 c0 -25 5 -46 10 -46 6 0 10 6 10 14 0 8 10 16 23 18 16 2
22 10 22 28 0 21 -5 26 -32 28 -33 3 -33 3 -33 -42z m50 14 c0 -11 -7 -20 -15
-20 -8 0 -15 9 -15 20 0 11 7 20 15 20 8 0 15 -9 15 -20z"/>
<path d="M6923 1419 c-12 -12 -2 -71 12 -76 9 -3 12 74 3 83 -2 2 -9 -1 -15
-7z"/>
<path d="M6700 1375 c0 -19 5 -35 10 -35 6 0 10 13 10 29 0 16 6 32 13 34 6 3
2 6 -10 6 -20 1 -23 -4 -23 -34z"/>
<path d="M6754 1386 c-7 -30 1 -46 26 -46 21 0 33 25 25 51 -9 28 -43 24 -51
-5z m36 -11 c0 -14 -4 -25 -10 -25 -5 0 -10 11 -10 25 0 14 5 25 10 25 6 0 10
-11 10 -25z"/>
<path d="M6818 1365 c-2 -27 1 -44 7 -42 13 5 19 87 7 87 -6 0 -12 -20 -14
-45z"/>
<path d="M6854 1396 c-15 -39 23 -74 50 -46 8 9 6 11 -11 5 -14 -4 -23 -2 -23
4 0 6 9 11 21 11 14 0 19 5 17 18 -4 22 -46 29 -54 8z m36 -6 c0 -5 -4 -10
-10 -10 -5 0 -10 5 -10 10 0 6 5 10 10 10 6 0 10 -4 10 -10z"/>
<path d="M6964 1386 c-7 -30 1 -46 26 -46 21 0 33 25 25 51 -9 28 -43 24 -51
-5z m36 -11 c0 -14 -4 -25 -10 -25 -5 0 -10 11 -10 25 0 14 5 25 10 25 6 0 10
-11 10 -25z"/>
<path d="M460 2291 c-13 -26 -13 -53 3 -74 10 -15 12 -9 12 38 0 30 -1 55 -2
55 -1 0 -7 -9 -13 -19z"/>
<path d="M494 2297 c-3 -9 -4 -28 -2 -44 2 -22 8 -28 28 -28 23 0 25 4 25 40
0 34 -3 40 -23 43 -13 2 -24 -3 -28 -11z m36 -32 c0 -19 -4 -35 -10 -35 -5 0
-10 16 -10 35 0 19 5 35 10 35 6 0 10 -16 10 -35z"/>
<path d="M665 2255 c0 -47 2 -53 13 -38 6 9 12 26 12 38 0 12 -6 29 -12 38
-11 15 -13 9 -13 -38z"/>
<path d="M590 2254 c0 -19 5 -34 10 -34 6 0 10 11 10 24 0 14 5 28 10 31 6 4
10 -7 10 -24 0 -17 5 -31 11 -31 6 0 9 14 7 32 -3 28 -7 33 -30 35 -26 2 -28
-1 -28 -33z"/>
<path d="M563 2221 c0 -11 5 -17 9 -15 11 7 10 34 -1 34 -6 0 -9 -9 -8 -19z"/>
<path d="M1560 1931 c-13 -26 -13 -53 3 -74 10 -15 12 -9 12 38 0 30 -1 55 -2
55 -1 0 -7 -9 -13 -19z"/>
<path d="M1594 1937 c-3 -9 -4 -28 -2 -44 2 -22 8 -28 28 -28 23 0 25 4 25 40
0 34 -3 40 -23 43 -13 2 -24 -3 -28 -11z m36 -32 c0 -19 -4 -35 -10 -35 -5 0
-10 16 -10 35 0 19 5 35 10 35 6 0 10 -16 10 -35z"/>
<path d="M1765 1895 c0 -47 2 -53 13 -38 6 9 12 26 12 38 0 12 -6 29 -12 38
-11 15 -13 9 -13 -38z"/>
<path d="M1690 1894 c0 -19 5 -34 10 -34 6 0 10 11 10 24 0 14 5 28 10 31 6 4
10 -7 10 -24 0 -17 5 -31 11 -31 6 0 9 14 7 32 -3 28 -7 33 -30 35 -26 2 -28
-1 -28 -33z"/>
<path d="M1663 1861 c0 -11 5 -17 9 -15 11 7 10 34 -1 34 -6 0 -9 -9 -8 -19z"/>
<path d="M1560 1691 c-13 -26 -13 -53 3 -74 10 -15 12 -9 12 38 0 30 -1 55 -2
55 -1 0 -7 -9 -13 -19z"/>
<path d="M1594 1697 c-3 -9 -4 -28 -2 -44 2 -22 8 -28 28 -28 23 0 25 4 25 40
0 34 -3 40 -23 43 -13 2 -24 -3 -28 -11z m36 -32 c0 -19 -4 -35 -10 -35 -5 0
-10 16 -10 35 0 19 5 35 10 35 6 0 10 -16 10 -35z"/>
<path d="M1765 1655 c0 -47 2 -53 13 -38 6 9 12 26 12 38 0 12 -6 29 -12 38
-11 15 -13 9 -13 -38z"/>
<path d="M1690 1654 c0 -19 5 -34 10 -34 6 0 10 11 10 24 0 14 5 28 10 31 6 4
10 -7 10 -24 0 -17 5 -31 11 -31 6 0 9 14 7 32 -3 28 -7 33 -30 35 -26 2 -28
-1 -28 -33z"/>
<path d="M1663 1621 c0 -11 5 -17 9 -15 11 7 10 34 -1 34 -6 0 -9 -9 -8 -19z"/>
<path d="M7630 1600 c-11 -11 -20 -27 -20 -35 0 -12 -17 -15 -82 -17 l-83 -2
82 -5 c74 -5 83 -9 103 -33 27 -35 63 -36 95 -3 33 32 32 68 -1 94 -34 26 -68
27 -94 1z m88 -6 c28 -19 28 -51 0 -81 -27 -29 -62 -29 -82 -1 -44 63 19 126
82 82z"/>
<path d="M3472 1308 l3 -293 603 -3 602 -2 -2 292 -3 293 -603 3 -602 2 2
-292z m1188 2 l0 -280 -590 0 -590 0 0 280 0 280 590 0 590 0 0 -280z"/>
<path d="M3620 1305 c0 -40 2 -45 23 -45 29 0 47 18 47 45 0 27 -18 45 -47 45
-21 0 -23 -5 -23 -45z m45 0 c0 -16 -6 -30 -12 -32 -9 -3 -13 7 -13 32 0 25 4
35 13 33 6 -3 12 -17 12 -33z"/>
<path d="M3965 1341 c-3 -6 -17 -11 -31 -11 -21 0 -24 -5 -24 -35 0 -19 5 -35
10 -35 6 0 10 14 10 30 0 38 27 41 32 3 5 -43 23 -37 21 8 -1 43 -7 57 -18 40z"/>
<path d="M4323 1339 c-12 -12 -2 -71 12 -76 9 -3 12 74 3 83 -2 2 -9 -1 -15
-7z"/>
<path d="M4464 1339 c-4 -8 0 -9 15 -4 28 8 28 -15 1 -40 -28 -26 -25 -35 13
-34 25 1 27 3 9 6 l-24 5 22 23 c13 14 20 31 17 39 -7 18 -43 21 -53 5z"/>
<path d="M3704 1316 c-15 -39 23 -74 50 -46 8 9 6 11 -11 5 -14 -4 -23 -2 -23
4 0 6 9 11 21 11 14 0 19 5 17 18 -4 22 -46 29 -54 8z m36 -6 c0 -5 -4 -10
-10 -10 -5 0 -10 5 -10 10 0 6 5 10 10 10 6 0 10 -4 10 -10z"/>
<path d="M3770 1284 c0 -24 5 -44 10 -44 10 0 14 19 11 52 -1 9 3 20 10 24 8
5 10 -2 7 -25 -3 -20 -1 -30 6 -28 6 2 11 17 11 33 0 24 -4 29 -27 31 -27 2
-28 0 -28 -43z"/>
<path d="M3846 1322 c-4 -6 3 -8 16 -5 23 6 23 6 -1 -14 -28 -23 -21 -43 15
-43 22 0 25 4 22 33 -2 24 -8 33 -25 35 -11 2 -24 -1 -27 -6z m30 -49 c-10
-10 -19 5 -10 18 6 11 8 11 12 0 2 -7 1 -15 -2 -18z"/>
<path d="M4006 1322 c-4 -6 3 -8 16 -5 23 6 23 6 -1 -14 -28 -23 -21 -43 15
-43 22 0 25 4 22 33 -2 24 -8 33 -25 35 -11 2 -24 -1 -27 -6z m30 -49 c-10
-10 -19 5 -10 18 6 11 8 11 12 0 2 -7 1 -15 -2 -18z"/>
<path d="M4070 1294 c0 -19 5 -34 10 -34 6 0 10 11 10 24 0 14 5 28 10 31 6 4
10 -7 10 -24 0 -17 5 -31 10 -31 6 0 10 11 10 24 0 14 5 28 10 31 6 4 10 -7
10 -24 0 -17 5 -31 11 -31 6 0 9 14 7 32 -3 31 -5 33 -50 34 l-48 2 0 -34z"/>
<path d="M4184 1316 c-15 -39 23 -74 50 -46 8 9 6 11 -11 5 -14 -4 -23 -2 -23
4 0 6 9 11 21 11 14 0 19 5 17 18 -4 22 -46 29 -54 8z m36 -6 c0 -5 -4 -10
-10 -10 -5 0 -10 5 -10 10 0 6 5 10 10 10 6 0 10 -4 10 -10z"/>
<path d="M4250 1294 c0 -19 5 -34 10 -34 6 0 10 11 10 24 0 14 5 28 10 31 6 4
10 -7 10 -24 0 -17 5 -31 11 -31 6 0 9 14 7 32 -3 28 -7 33 -30 35 -26 2 -28
-1 -28 -33z"/>
<path d="M4364 1306 c-7 -30 1 -46 26 -46 21 0 33 25 25 51 -9 28 -43 24 -51
-5z m36 -11 c0 -14 -4 -25 -10 -25 -5 0 -10 11 -10 25 0 14 5 25 10 25 6 0 10
-11 10 -25z"/>
<path d="M7790 1545 c0 -25 5 -45 10 -45 6 0 10 20 10 45 0 25 -4 45 -10 45
-5 0 -10 -20 -10 -45z"/>
<path d="M7820 1545 c0 -40 2 -45 23 -45 29 0 47 18 47 45 0 27 -18 45 -47 45
-21 0 -23 -5 -23 -45z m45 0 c0 -16 -6 -30 -12 -32 -9 -3 -13 7 -13 32 0 25 4
35 13 33 6 -3 12 -17 12 -33z"/>
<path d="M8070 1545 c0 -25 5 -45 10 -45 6 0 10 20 10 45 0 25 -4 45 -10 45
-5 0 -10 -20 -10 -45z"/>
<path d="M8170 1546 c0 -43 1 -45 28 -43 23 2 27 7 27 31 0 16 -5 31 -11 33
-7 2 -9 -8 -6 -28 3 -23 1 -30 -7 -25 -7 4 -11 15 -10 24 3 33 -1 52 -11 52
-5 0 -10 -20 -10 -44z"/>
<path d="M8469 1573 c-1 -10 -1 -25 0 -35 1 -9 -3 -20 -10 -24 -8 -5 -10 2 -7
25 3 20 1 30 -6 28 -6 -2 -11 -17 -11 -33 0 -24 4 -29 28 -31 26 -2 27 0 27
43 0 41 -19 65 -21 27z"/>
<path d="M7934 1556 c-15 -39 23 -74 50 -46 8 9 6 11 -11 5 -20 -5 -23 -3 -23
20 0 22 3 25 21 20 15 -5 19 -4 15 4 -10 16 -46 14 -52 -3z"/>
<path d="M8004 1546 c-7 -30 1 -46 26 -46 21 0 33 25 25 51 -9 28 -43 24 -51
-5z m36 -11 c0 -14 -4 -25 -10 -25 -5 0 -10 11 -10 25 0 14 5 25 10 25 6 0 10
-11 10 -25z"/>
<path d="M8106 1562 c-4 -6 3 -8 16 -5 23 6 23 6 -1 -14 -28 -23 -21 -43 15
-43 22 0 25 4 22 33 -2 24 -8 33 -25 35 -11 2 -24 -1 -27 -6z m30 -49 c-10
-10 -19 5 -10 18 6 11 8 11 12 0 2 -7 1 -15 -2 -18z"/>
<path d="M8244 1546 c-7 -30 1 -46 26 -46 21 0 33 25 25 51 -9 28 -43 24 -51
-5z m36 -11 c0 -14 -4 -25 -10 -25 -5 0 -10 11 -10 25 0 14 5 25 10 25 6 0 10
-11 10 -25z"/>
<path d="M8310 1535 c0 -19 5 -35 10 -35 6 0 10 13 10 29 0 16 6 32 13 34 6 3
2 6 -10 6 -20 1 -23 -4 -23 -34z"/>
<path d="M8366 1562 c-4 -6 3 -8 16 -5 23 6 23 6 -1 -14 -28 -23 -21 -43 15
-43 22 0 25 4 22 33 -2 24 -8 33 -25 35 -11 2 -24 -1 -27 -6z m30 -49 c-10
-10 -19 5 -10 18 6 11 8 11 12 0 2 -7 1 -15 -2 -18z"/>
<path d="M8504 1546 c-7 -30 1 -46 26 -46 21 0 33 25 25 51 -9 28 -43 24 -51
-5z m36 -11 c0 -14 -4 -25 -10 -25 -5 0 -10 11 -10 25 0 14 5 25 10 25 6 0 10
-11 10 -25z"/>
<path d="M8570 1535 c0 -19 5 -35 10 -35 6 0 10 13 10 29 0 16 6 32 13 34 6 3
2 6 -10 6 -20 1 -23 -4 -23 -34z"/>
<path d="M5870 1511 c-13 -26 -13 -53 3 -74 10 -15 12 -9 12 38 0 30 -1 55 -2
55 -1 0 -7 -9 -13 -19z"/>
<path d="M5904 1517 c-3 -9 -4 -28 -2 -44 2 -22 8 -28 28 -28 23 0 25 4 25 40
0 34 -3 40 -23 43 -13 2 -24 -3 -28 -11z m36 -32 c0 -19 -4 -35 -10 -35 -5 0
-10 16 -10 35 0 19 5 35 10 35 6 0 10 -16 10 -35z"/>
<path d="M6075 1475 c0 -47 2 -53 13 -38 6 9 12 26 12 38 0 12 -6 29 -12 38
-11 15 -13 9 -13 -38z"/>
<path d="M6000 1474 c0 -19 5 -34 10 -34 6 0 10 11 10 24 0 14 5 28 10 31 6 4
10 -7 10 -24 0 -17 5 -31 11 -31 6 0 9 14 7 32 -3 28 -7 33 -30 35 -26 2 -28
-1 -28 -33z"/>
<path d="M1032 1208 l-2 -298 233 0 232 0 375 -125 375 -125 375 125 375 125
186 0 186 0 -4 -27 c-3 -16 2 -37 10 -48 14 -18 15 -16 10 28 -4 30 -2 47 5
47 6 0 12 -15 14 -32 2 -28 7 -33 28 -33 21 0 26 5 28 33 2 24 8 32 23 32 15
0 19 -7 19 -35 0 -41 19 -48 21 -7 1 15 1 31 0 35 -1 5 3 6 9 2 5 -3 10 -19
10 -36 0 -16 5 -29 11 -29 7 0 10 14 7 35 -3 26 0 35 10 35 11 0 13 -10 9 -47
-5 -44 -4 -46 10 -28 8 11 13 32 10 48 -3 25 -1 27 35 27 l38 0 -2 48 -1 47
-4 -41 -4 -42 -332 -1 -332 -1 -375 125 -375 125 -375 -125 -375 -125 -227 0
-228 0 -3 293 -2 292 -3 -297z m1576 -169 c200 -67 361 -123 359 -125 -2 -3
-166 -59 -363 -124 l-359 -120 -363 121 c-200 67 -361 123 -359 125 4 4 703
241 717 243 3 1 168 -53 368 -120z m832 -159 c0 -16 -4 -30 -10 -30 -5 0 -10
14 -10 30 0 17 5 30 10 30 6 0 10 -13 10 -30z"/>
<path d="M2140 905 c0 -49 15 -62 22 -17 5 35 -1 62 -13 62 -5 0 -9 -20 -9
-45z"/>
<path d="M2284 940 c-12 -12 -6 -80 7 -80 7 0 11 31 8 68 0 4 10 10 23 14 23
6 23 6 -2 7 -15 1 -30 -3 -36 -9z"/>
<path d="M2074 916 c-15 -39 23 -74 50 -46 8 9 6 11 -11 5 -20 -5 -23 -3 -23
20 0 22 3 25 21 20 15 -5 19 -4 15 4 -10 16 -46 14 -52 -3z"/>
<path d="M2178 895 c2 -19 8 -35 14 -35 13 0 6 63 -8 67 -6 2 -8 -10 -6 -32z"/>
<path d="M2214 916 c-15 -39 23 -74 50 -46 8 9 6 11 -11 5 -14 -4 -23 -2 -23
4 0 6 9 11 21 11 14 0 19 5 17 18 -4 22 -46 29 -54 8z m36 -6 c0 -5 -4 -10
-10 -10 -5 0 -10 5 -10 10 0 6 5 10 10 10 6 0 10 -4 10 -10z"/>
<path d="M2320 895 c0 -19 5 -35 10 -35 6 0 10 16 10 35 0 19 -4 35 -10 35 -5
0 -10 -16 -10 -35z"/>
<path d="M2356 922 c-4 -6 3 -8 16 -5 23 6 23 6 -1 -14 -28 -23 -21 -43 15
-43 22 0 25 4 22 33 -2 24 -8 33 -25 35 -11 2 -24 -1 -27 -6z m30 -49 c-10
-10 -19 5 -10 18 6 11 8 11 12 0 2 -7 1 -15 -2 -18z"/>
<path d="M5973 1441 c0 -11 5 -17 9 -15 11 7 10 34 -1 34 -6 0 -9 -9 -8 -19z"/>
<path d="M740 1411 c-13 -26 -13 -53 3 -74 10 -15 12 -9 12 38 0 30 -1 55 -2
55 -1 0 -7 -9 -13 -19z"/>
<path d="M774 1417 c-3 -9 -4 -28 -2 -44 2 -22 8 -28 28 -28 23 0 25 4 25 40
0 34 -3 40 -23 43 -13 2 -24 -3 -28 -11z m36 -32 c0 -19 -4 -35 -10 -35 -5 0
-10 16 -10 35 0 19 5 35 10 35 6 0 10 -16 10 -35z"/>
<path d="M945 1375 c0 -47 2 -53 13 -38 6 9 12 26 12 38 0 12 -6 29 -12 38
-11 15 -13 9 -13 -38z"/>
<path d="M7630 1400 c-11 -11 -20 -27 -20 -35 0 -12 -17 -15 -82 -17 l-83 -2
82 -5 c74 -5 83 -9 103 -33 27 -35 63 -36 95 -3 33 32 32 68 -1 94 -34 26 -68
27 -94 1z m88 -6 c28 -19 28 -51 0 -81 -27 -29 -62 -29 -82 -1 -44 63 19 126
82 82z"/>
<path d="M870 1374 c0 -19 5 -34 10 -34 6 0 10 11 10 24 0 14 5 28 10 31 6 4
10 -7 10 -24 0 -17 5 -31 11 -31 6 0 9 14 7 32 -3 28 -7 33 -30 35 -26 2 -28
-1 -28 -33z"/>
<path d="M7790 1345 c0 -25 5 -45 10 -45 6 0 10 20 10 45 0 25 -4 45 -10 45
-5 0 -10 -20 -10 -45z"/>
<path d="M7820 1334 c0 -19 5 -34 10 -34 6 0 10 11 10 24 0 14 5 28 10 31 6 4
10 -7 10 -24 0 -17 5 -31 11 -31 6 0 9 14 7 32 -3 28 -7 33 -30 35 -26 2 -28
-1 -28 -33z"/>
<path d="M7890 1335 c0 -19 5 -35 10 -35 6 0 10 16 10 35 0 19 -4 35 -10 35
-5 0 -10 -16 -10 -35z"/>
<path d="M7924 1356 c-15 -39 23 -74 50 -46 8 9 6 11 -11 5 -20 -5 -23 -3 -23
20 0 22 3 25 21 20 15 -5 19 -4 15 4 -10 16 -46 14 -52 -3z"/>
<path d="M7990 1335 c0 -19 5 -35 10 -35 6 0 10 16 10 35 0 19 -4 35 -10 35
-5 0 -10 -16 -10 -35z"/>
<path d="M8024 1346 c-7 -30 1 -46 26 -46 21 0 33 25 25 51 -9 28 -43 24 -51
-5z m36 -11 c0 -14 -4 -25 -10 -25 -5 0 -10 11 -10 25 0 14 5 25 10 25 6 0 10
-11 10 -25z"/>
<path d="M843 1341 c0 -11 5 -17 9 -15 11 7 10 34 -1 34 -6 0 -9 -9 -8 -19z"/>
<path d="M7630 1240 c-11 -11 -20 -27 -20 -35 0 -12 -17 -15 -82 -17 l-83 -2
82 -5 c74 -5 83 -9 103 -33 27 -35 63 -36 95 -3 33 32 32 68 -1 94 -34 26 -68
27 -94 1z m88 -6 c28 -19 28 -51 0 -81 -27 -29 -62 -29 -82 -1 -44 63 19 126
82 82z"/>
<path d="M7790 1185 c0 -25 5 -45 10 -45 6 0 10 9 10 19 0 11 8 22 18 24 16 4
16 5 0 6 -10 0 -18 7 -18 15 0 8 8 17 18 19 10 3 6 5 -10 6 -27 1 -28 -1 -28
-44z"/>
<path d="M7850 1175 c0 -19 5 -35 10 -35 6 0 10 16 10 35 0 19 -4 35 -10 35
-5 0 -10 -16 -10 -35z"/>
<path d="M7880 1174 c0 -19 5 -34 10 -34 6 0 10 11 10 24 0 14 5 28 10 31 6 4
10 -7 10 -24 0 -17 5 -31 10 -31 6 0 10 11 10 24 0 14 5 28 10 31 6 4 10 -7
10 -24 0 -17 5 -31 11 -31 6 0 9 14 7 32 -3 31 -5 33 -50 34 l-48 2 0 -34z"/>
<path d="M4180 865 l0 -135 -175 0 -175 0 0 -185 0 -185 48 0 c42 0 51 -4 70
-30 15 -20 31 -30 48 -30 32 0 74 42 74 74 0 29 -42 66 -76 66 -27 0 -64 -32
-64 -55 0 -11 -12 -15 -45 -15 l-45 0 0 175 0 175 175 0 175 0 0 140 c0 77 -2
140 -5 140 -3 0 -5 -61 -5 -135z m-142 -451 c28 -19 28 -51 0 -81 -27 -29 -62
-29 -82 -1 -44 63 19 126 82 82z"/>
<path d="M3473 841 c0 -11 5 -17 9 -15 11 7 10 34 -1 34 -6 0 -9 -9 -8 -19z"/>
<path d="M4700 540 c-11 -11 -20 -27 -20 -35 0 -12 -14 -15 -65 -15 l-65 0 0
-60 0 -59 -57 -4 -58 -3 58 -2 57 -2 0 -70 0 -70 58 0 c53 0 60 -3 80 -30 15
-20 31 -30 48 -30 32 0 74 42 74 74 0 29 -42 66 -76 66 -27 0 -64 -32 -64 -55
0 -12 -13 -15 -55 -15 l-55 0 0 125 0 125 58 0 c53 0 60 -3 80 -30 28 -37 64
-39 97 -5 33 32 32 68 -1 94 -34 26 -68 27 -94 1z m88 -6 c28 -19 28 -51 0
-81 -27 -29 -62 -29 -82 -1 -44 63 19 126 82 82z m-10 -260 c28 -19 28 -51 0
-81 -27 -29 -62 -29 -82 -1 -44 63 19 126 82 82z"/>
<path d="M4860 485 c0 -25 5 -45 10 -45 6 0 10 12 10 28 l1 27 15 -27 c21 -41
34 -34 34 17 0 25 -4 45 -10 45 -5 0 -10 -12 -10 -27 l-1 -28 -15 28 c-21 40
-34 33 -34 -18z"/>
<path d="M5220 485 c0 -40 2 -45 23 -45 29 0 47 18 47 45 0 27 -18 45 -47 45
-21 0 -23 -5 -23 -45z m45 0 c0 -16 -6 -30 -12 -32 -9 -3 -13 7 -13 32 0 25 4
35 13 33 6 -3 12 -17 12 -33z"/>
<path d="M5300 486 c0 -25 5 -46 10 -46 6 0 10 6 10 14 0 8 10 16 23 18 16 2
22 10 22 28 0 21 -5 26 -32 28 -33 3 -33 3 -33 -42z m50 14 c0 -11 -7 -20 -15
-20 -8 0 -15 9 -15 20 0 11 7 20 15 20 8 0 15 -9 15 -20z"/>
<path d="M4944 486 c-7 -30 1 -46 26 -46 21 0 33 25 25 51 -9 28 -43 24 -51
-5z m36 -11 c0 -14 -4 -25 -10 -25 -5 0 -10 11 -10 25 0 14 5 25 10 25 6 0 10
-11 10 -25z"/>
<path d="M5010 474 c0 -19 5 -34 10 -34 6 0 10 11 10 24 0 14 5 28 10 31 6 4
10 -7 10 -24 0 -17 5 -31 10 -31 6 0 10 11 10 24 0 14 5 28 10 31 6 4 10 -7
10 -24 0 -17 5 -31 11 -31 6 0 9 14 7 32 -3 31 -5 33 -50 34 l-48 2 0 -34z"/>
<path d="M5124 496 c-15 -39 23 -74 50 -46 8 9 6 11 -11 5 -14 -4 -23 -2 -23
4 0 6 9 11 21 11 14 0 19 5 17 18 -4 22 -46 29 -54 8z m36 -6 c0 -5 -4 -10
-10 -10 -5 0 -10 5 -10 10 0 6 5 10 10 10 6 0 10 -4 10 -10z"/>
<path d="M4117 403 c-14 -14 -6 -34 18 -45 34 -15 32 -32 -2 -23 -21 5 -25 4
-17 -5 17 -17 58 -8 62 12 2 11 -6 22 -22 29 -34 16 -34 33 0 25 17 -5 23 -3
19 4 -7 11 -48 14 -58 3z"/>
<path d="M4290 365 c0 -25 5 -45 10 -45 6 0 10 20 10 45 0 25 -4 45 -10 45 -5
0 -10 -20 -10 -45z"/>
<path d="M4400 370 c0 -32 1 -33 17 -17 16 16 16 18 0 34 -16 16 -17 15 -17
-17z"/>
<path d="M4190 355 c0 -19 5 -35 10 -35 6 0 10 16 10 35 0 19 -4 35 -10 35 -5
0 -10 -16 -10 -35z"/>
<path d="M4224 375 c-3 -7 -3 -25 -1 -41 3 -23 9 -29 28 -29 21 0 24 5 27 41
3 39 1 42 -23 42 -15 0 -29 -6 -31 -13z m34 -35 c-1 -21 -6 -30 -17 -29 -9 0
-11 3 -5 5 6 2 8 19 6 36 -3 20 -1 29 6 24 6 -3 10 -20 10 -36z"/>
<path d="M4326 382 c-4 -6 3 -8 16 -5 23 6 23 6 -1 -14 -28 -23 -21 -43 15
-43 22 0 25 4 22 33 -2 24 -8 33 -25 35 -11 2 -24 -1 -27 -6z m30 -49 c-10
-10 -19 5 -10 18 6 11 8 11 12 0 2 -7 1 -15 -2 -18z"/>
<path d="M4862 258 c-27 -27 -7 -78 29 -78 10 0 21 4 24 10 4 6 -4 9 -17 7
-19 -2 -23 3 -23 28 0 25 4 30 23 28 13 -2 21 1 17 7 -8 14 -38 13 -53 -2z"/>
<path d="M4940 256 c-28 -35 11 -93 48 -70 35 22 22 84 -18 84 -10 0 -23 -7
-30 -14z m45 -32 c0 -19 -5 -29 -15 -29 -16 0 -25 28 -16 51 10 25 31 10 31
-22z"/>
<path d="M5020 225 c0 -40 2 -45 23 -45 29 0 47 18 47 45 0 27 -18 45 -47 45
-21 0 -23 -5 -23 -45z m45 0 c0 -16 -6 -30 -12 -32 -9 -3 -13 7 -13 32 0 25 4
35 13 33 6 -3 12 -17 12 -33z"/>
<path d="M5142 258 c-27 -27 -7 -78 29 -78 10 0 21 4 24 10 4 6 -4 9 -17 7
-19 -2 -23 3 -23 28 0 25 4 30 23 28 13 -2 21 1 17 7 -8 14 -38 13 -53 -2z"/>
<path d="M5280 225 c0 -25 5 -45 10 -45 6 0 10 20 10 45 0 25 -4 45 -10 45 -5
0 -10 -20 -10 -45z"/>
<path d="M5380 226 c0 -43 1 -45 28 -43 23 2 27 7 27 31 0 16 -5 31 -11 33 -7
2 -9 -8 -6 -28 3 -23 1 -30 -7 -25 -7 4 -11 15 -10 24 3 33 -1 52 -11 52 -5 0
-10 -20 -10 -44z"/>
<path d="M5679 253 c-1 -10 -1 -25 0 -35 1 -9 -3 -20 -10 -24 -8 -5 -10 2 -7
25 3 20 1 30 -6 28 -6 -2 -11 -17 -11 -33 0 -24 4 -29 28 -31 26 -2 27 0 27
43 0 41 -19 65 -21 27z"/>
<path d="M5214 226 c-7 -30 1 -46 26 -46 21 0 33 25 25 51 -9 28 -43 24 -51
-5z m36 -11 c0 -14 -4 -25 -10 -25 -5 0 -10 11 -10 25 0 14 5 25 10 25 6 0 10
-11 10 -25z"/>
<path d="M5316 242 c-4 -6 3 -8 16 -5 23 6 23 6 -1 -14 -28 -23 -21 -43 15
-43 22 0 25 4 22 33 -2 24 -8 33 -25 35 -11 2 -24 -1 -27 -6z m30 -49 c-10
-10 -19 5 -10 18 6 11 8 11 12 0 2 -7 1 -15 -2 -18z"/>
<path d="M5454 226 c-7 -30 1 -46 26 -46 21 0 33 25 25 51 -9 28 -43 24 -51
-5z m36 -11 c0 -14 -4 -25 -10 -25 -5 0 -10 11 -10 25 0 14 5 25 10 25 6 0 10
-11 10 -25z"/>
<path d="M5520 215 c0 -19 5 -35 10 -35 6 0 10 13 10 29 0 16 6 32 13 34 6 3
2 6 -10 6 -20 1 -23 -4 -23 -34z"/>
<path d="M5576 242 c-4 -6 3 -8 16 -5 23 6 23 6 -1 -14 -28 -23 -21 -43 15
-43 22 0 25 4 22 33 -2 24 -8 33 -25 35 -11 2 -24 -1 -27 -6z m30 -49 c-10
-10 -19 5 -10 18 6 11 8 11 12 0 2 -7 1 -15 -2 -18z"/>
<path d="M5714 226 c-7 -30 1 -46 26 -46 21 0 33 25 25 51 -9 28 -43 24 -51
-5z m36 -11 c0 -14 -4 -25 -10 -25 -5 0 -10 11 -10 25 0 14 5 25 10 25 6 0 10
-11 10 -25z"/>
<path d="M5780 215 c0 -19 5 -35 10 -35 6 0 10 13 10 29 0 16 6 32 13 34 6 3
2 6 -10 6 -20 1 -23 -4 -23 -34z"/>
</g>
</svg>
